<?xml version="1.0" encoding="UTF-8"?><svg id="a" xmlns="http://www.w3.org/2000/svg" viewBox="0 0 925.15 817.25"><defs><style>.b{fill:#a58879;}</style></defs><g><g><g><path class="b" d="M607.08,370.19c-34.82,18.66-71.06,34.75-108.56,47.94-52.71,18.53-117.62,38.71-172.87,19.82-.68-.23-.96,.83-.3,1.07,45.72,16.06,98.37,4.29,143.35-8.74,47.98-13.9,94.8-32.84,139.09-56.06-.32-1.35-.57-2.7-.72-4.04Z"/><path class="b" d="M921.86,57.08c-29.48,76.99-89.67,142.44-149.98,196.77-36.38,32.78-75.39,62.37-116.64,88.3,2.56,.13,5.04,.29,7.41,.47,75.78-47.59,145.02-107.9,200.47-177.63,25.53-32.11,50.03-67.36,61.95-107.03,.63-2.09-2.46-2.84-3.21-.88Z"/></g><path class="b" d="M879.72,137.46c-33.32,36.85-86.54,58.31-136.06,56.72-19.89-.64-51.91-9.4-69.54,3.59-17.2,12.67-7.37,37.9-33.79,43.76-15.89,3.53-35.04-1.12-48.94,9.41-6.21,4.71-9.34,11.58-11.93,18.71-5.68,15.66-10.62,30.26-26.56,38.42-20.19,10.33-43.43,0-62.35,15.02-12.83,10.19-19.96,25.56-28.82,38.93-6.63,10.01-14.03,19.27-25.52,23.75-13.68,5.34-29.1,1.23-42.71,6.74-8.07,3.27-13.41,9.21-18.51,16.03-13.03,17.44-26.38,30.14-49.89,26.95-2.86-.39-4.14,3.97-1.22,4.41,18.17,2.75,34.94-3.05,46.67-17.44,11.56-14.18,17.39-26.52,37.8-28.57,10.29-1.04,20.75-.27,30.49-4.39,15.71-6.64,24.65-22.19,33.06-36.11,4.79-7.93,9.56-16.12,16.04-22.82,12.72-13.16,27.39-13.5,44.81-14.48,18.76-1.06,35.18-10.11,43.47-27.56,5.56-11.7,6.15-26.86,17.35-35.02,10.81-7.88,24.96-6.65,37.67-7.81,14.41-1.32,26.54-5.13,32.55-19.32,2.04-4.81,2.88-10.05,4.78-14.9,4.49-11.44,15.4-14.96,26.93-15.67,16.06-.98,32.11,1.8,48.14,2.31,50.77,1.63,103.91-21.05,137.02-59.72,.56-.65-.37-1.61-.96-.96h0Z"/><g><path class="b" d="M544.73,469.61c-5.3-1.86-10.66-3.52-16.36-4.29-13.24-1.77-26.52,.08-38.94,4.86-19.46,7.49-36.19,20.44-55.28,4-8.26-7.11-14.18-14.35-25.44-16.3-28.65-4.97-60.19,5.18-81.22-21.38-2.23-2.82-6.23,1.17-3.97,3.97,14.63,18.13,37.63,21.46,59.68,21.91,16.74,.34,29.59-.94,42.95,11,7.65,6.84,14.04,13.61,24.84,14.43,11.27,.86,21.45-4.78,31.37-9.3,20.23-9.22,39.69-12.11,61.12-5.23,.27,.09,.54,.17,.81,.26-.12-1.3,.04-2.62,.43-3.93Z"/><path class="b" d="M712.16,406.67c-5.45,8.37-9.99,17.6-17.35,24.4-.04,.03-.08,.06-.11,.09,.5,.77,.88,1.6,1.2,2.45,7.91-6.7,13.53-16.74,20.33-26.26,.49-.69,1.03-1.33,1.54-2-1.84,.49-3.71,.92-5.6,1.32Z"/><path class="b" d="M879.61,137.59c-21.21,44.7-48,87.11-65.31,133.61-7.06,18.98-7.58,39.45-14.35,58.38-8.96,25.08-33.33,33.2-54.28,45.81,.39,1.6,.5,3.26,.32,4.99,1.98-1.25,3.99-2.48,6.03-3.65,12.09-6.95,25.59-11.77,36.16-21.1,15.16-13.37,18.96-31.54,22.47-50.6,10.95-59.41,47.65-111.53,70.2-166.93,.29-.7-.91-1.21-1.24-.52Z"/></g><path class="b" d="M611.01,246.1c62.99,2.72,127.37,2.46,189.02-12.2,1.8-.43,1.04-3.21-.77-2.78-62.12,14.77-124.89,13.68-188.26,14.65-.21,0-.21,.32,0,.33h0Z"/><path class="b" d="M519.15,315.54c60.43-7.57,123.34,17.54,182.56-.88,1.63-.51,.96-2.98-.71-2.57-60.58,15.2-121.13-7.36-181.96,2.68-.43,.07-.33,.82,.1,.76h0Z"/><path class="b" d="M407.89,393.12c59.39,2.08,119.9,5.88,178.17-8.41,1.53-.38,.88-2.67-.65-2.35-58.76,12.11-117.93,9.56-177.52,9.65-.72,0-.71,1.08,0,1.11h0Z"/><path class="b" d="M363.33,427.56c33.68,3.99,68.17,6.37,102.07,4,1.55-.11,1.59-2.46,0-2.44-34.16,.5-68-.05-102.07-2.89-.86-.07-.83,1.23,0,1.33h0Z"/><path class="b" d="M392.58,461.12c37.86-7.97,73.44-25.19,108.4-41.27,1.18-.54,.32-2.64-.9-2.13-35.65,14.99-69.77,33.86-107.65,42.86-.35,.08-.2,.61,.15,.53h0Z"/><path class="b" d="M457.56,486.45c58.98-15.09,90.82-72.24,137.95-105.88,1.44-1.03,.06-3.43-1.4-2.39-47.44,33.65-79.01,88.95-136.93,106.88-.88,.27-.52,1.62,.38,1.39h0Z"/><path class="b" d="M687.97,345.22c6.37-11.02,12.64-22.1,18.88-33.18,1.19-2.12-2.06-4.02-3.25-1.9-6.49,11.53-13.02,23.04-19.63,34.51,1.34,.18,2.67,.37,4,.58Z"/><path class="b" d="M809.51,297.57c6.03-35.92,15.86-70.18,29.74-103.87,.68-1.65-2-2.37-2.67-.74-13.76,33.39-24.55,68.4-27.94,104.49-.05,.49,.79,.61,.87,.12h0Z"/><path class="b" d="M781.98,248.27c-18.15,16.75-22.65,43.77-30.07,66.27-5.27,15.99-10.76,31.78-16.9,47.31,1.08,.77,2.11,1.58,3.08,2.41,4.77-11.63,8.99-23.48,12.76-35.35,8.75-27.52,14.93-56.23,31.56-80.31,.19-.27-.21-.54-.44-.34Z"/><path class="b" d="M668.55,238.1c32.17,2.22,64.91,1.41,96.73-4.15,.5-.09,.28-.81-.21-.75-32.15,4.38-64.08,6.48-96.52,4.57-.21-.01-.21,.32,0,.33h0Z"/><path class="b" d="M696.16,232.64c33.6,1.48,67.66-1.95,100.02-11.35,.46-.13,.26-.83-.2-.71-32.74,8.67-65.93,12.94-99.82,11.55-.33-.01-.33,.5,0,.52h0Z"/><path class="b" d="M723.3,225.41c12.32-1.63,24.65-3.19,36.95-4.92,.33-.05,.19-.54-.14-.5-12.28,1.7-24.55,3.58-36.82,5.38-.02,0-.02,.04,0,.04h0Z"/><path class="b" d="M741.2,214.05c5.27-.23,10.56-.77,15.73-1.87,.42-.09,.24-.72-.18-.64-5.16,.99-10.3,1.79-15.55,2.15-.24,.02-.24,.38,0,.37h0Z"/><path class="b" d="M768.91,286c-8.1,22.48-15.02,45.33-20.76,68.53-.19,.76,.99,1.09,1.18,.32,5.56-23.24,12.34-46.13,20.3-68.66,.16-.45-.55-.64-.71-.2h0Z"/><path class="b" d="M771.62,300.82c-7.18,14.32-13.48,30.44-14.56,46.57-.04,.65,.97,.78,1.13,.15,3.87-16,7.24-31.17,14.3-46.22,.27-.57-.57-1.08-.86-.5h0Z"/><path class="b" d="M772.35,320.5c-1.1,3.69-2.22,7.38-3.23,11.1-.15,.55,.7,.79,.86,.24,1.02-3.72,1.94-7.46,2.88-11.19,.08-.32-.4-.46-.5-.14h0Z"/><path class="b" d="M806.35,285.4c-3.64,12.44-7.3,25.42-8.44,38.37-.06,.64,.99,.78,1.13,.15,2.81-12.77,4.67-25.65,7.99-38.34,.11-.44-.55-.62-.68-.19h0Z"/><path class="b" d="M836.19,178.36c-14.11,8.05-28.73,12.4-44.46,15.89-.6,.13-.48,1.17,.15,1.09,15.78-1.93,31.02-8.45,44.52-16.63,.22-.14,.02-.48-.21-.35h0Z"/><path class="b" d="M819.04,193.73c-6.71,2.77-13.56,4.94-20.44,7.24-.74,.25-.44,1.38,.32,1.18,7-1.92,13.77-4.81,20.34-7.88,.3-.14,.08-.67-.23-.54h0Z"/><path class="b" d="M572.52,306.47c36.01,3.38,73.7,4.96,109.65,.06,.41-.06,.31-.74-.1-.73-36.76,1.69-72.77,3.35-109.55,.15-.33-.03-.33,.49,0,.52h0Z"/><path class="b" d="M603.43,300.93c17.18,1.46,34.39,1.92,51.62,1.38,.38-.01,.38-.61,0-.59-17.23,.64-34.44,.28-51.62-1.08-.19-.02-.19,.28,0,.3h0Z"/><path class="b" d="M613.05,292.54c18.05,2.21,36.34,3.38,54.52,2.5,.4-.02,.41-.63,0-.63-18.27,.2-36.35-.23-54.52-2.32-.28-.03-.28,.41,0,.44h0Z"/><path class="b" d="M615.73,252.93c41.2,2.36,82.4,1.27,123.4-3.33,.54-.06,.54-.91,0-.85-40.97,4.54-82.24,5.8-123.4,3.7-.31-.02-.31,.46,0,.48h0Z"/><path class="b" d="M637.83,259.9c18.22,.58,36.43,.75,54.66,.52,.48,0,.48-.75,0-.74-18.22,.33-36.44,.26-54.66-.22-.29,0-.28,.43,0,.44h0Z"/><path class="b" d="M683.93,277.03c17.55-1.51,35.56,4.42,52.81-.46,.57-.16,.33-1.02-.25-.89-17.52,3.88-34.93-.78-52.56,1.1-.16,.02-.17,.27,0,.26h0Z"/><path class="b" d="M695.57,282.8c10.38-.14,20.83,.05,31.2-.56,.47-.03,.48-.73,0-.74-10.38-.15-20.82,.52-31.2,.86-.28,0-.29,.45,0,.44h0Z"/><path class="b" d="M697.28,346.91c2.12-3.83,4.23-7.67,6.29-11.53,.2-.38-.37-.71-.57-.34-2.17,3.93-4.43,7.79-6.66,11.68,.32,.06,.63,.12,.95,.19Z"/><path class="b" d="M731.08,359.29c10.16-24.02,18.84-48.7,26.41-73.58,.12-.39-.48-.55-.61-.17-7.9,24.82-17.17,49.01-27.26,72.9,.49,.28,.98,.56,1.46,.84Z"/><path class="b" d="M739.87,315.99c-4.5,11.21-9.18,22.36-13.38,33.69-.25,.68,.8,.94,1.07,.29,4.6-11.15,8.73-22.51,13.02-33.79,.17-.45-.54-.63-.71-.2h0Z"/><path class="b" d="M564.06,418.64c5.24-5.78,10.4-11.61,15.52-17.4,.28-.32-.18-.79-.47-.47-15.38,16.99-31.92,32.79-47.62,49.45-.43,.45,.22,1.09,.68,.68,5.78-5.16,11.36-10.6,16.81-16.18,3.41-6.06,8.85-11.65,15.08-16.08Z"/><path class="b" d="M458.26,383.61c39.64,3.11,80.38,2.66,119.68-3.86,.59-.1,.46-1.12-.14-1.05-39.9,4.62-79.38,6.99-119.54,4.51-.26-.02-.26,.39,0,.41h0Z"/><path class="b" d="M486.75,378.06c18.37-.43,36.76-.62,55.12-1.25,.43-.01,.43-.67,0-.67-18.37,.29-36.75,1.02-55.12,1.51-.26,0-.26,.41,0,.41h0Z"/><path class="b" d="M556.11,323.14c30.13,2.59,60.62,5.18,90.89,5.16,.6,0,.59-.89,0-.92-30.31-1.74-60.61-2.59-90.89-5.12-.57-.05-.56,.84,0,.89h0Z"/><path class="b" d="M509.08,328.87c30.81,2.95,61.8,5.33,92.75,5.94,.57,.01,.57-.86,0-.89-30.97-1.35-61.87-2.81-92.75-5.57-.33-.03-.33,.49,0,.52h0Z"/><path class="b" d="M534.09,337.03c13.89-.27,27.63,.67,41.5,1.1,.49,.02,.46-.68,0-.74-13.69-1.65-27.75-1.42-41.5-.99-.4,.01-.41,.64,0,.63h0Z"/><path class="b" d="M412.65,400.58c32.39,.83,65.16,3.12,97.55,2.23,.84-.02,.83-1.24,0-1.29-32.32-2.13-65.16-1.09-97.55-1.49-.36,0-.36,.55,0,.55h0Z"/><path class="b" d="M426.16,405.12c20.14-1.45,39.94-.59,60.03,1.08,.53,.04,.5-.75,0-.81-19.82-2.59-40.14-2.36-60.03-.78-.33,.03-.33,.54,0,.52h0Z"/><path class="b" d="M433.84,411.03c11.59-.17,23.15,.14,34.71,.92,.62,.04,.62-.92,0-.96-11.56-.74-23.12-1.01-34.71-.81-.55,0-.55,.86,0,.85h0Z"/><path class="b" d="M402.15,417.49c23.03,2.36,46.06,4.72,69.09,7.08,.83,.08,.83-1.22,0-1.29-23.03-2.15-46.06-4.3-69.09-6.45-.43-.04-.42,.62,0,.67h0Z"/><path class="b" d="M444.03,460.81c23.78-10.96,48.39-22.24,70.51-36.31,.53-.34,.07-1.1-.48-.83-23.73,11.48-46.65,24.93-70.18,36.88-.17,.09-.02,.33,.15,.26h0Z"/><path class="b" d="M474.88,455.07c11.93-5.51,23.86-11.72,34.45-19.57,.62-.46,.05-1.49-.62-1.05-11.1,7.32-22.05,14.43-34.04,20.27-.24,.12-.03,.46,.21,.35h0Z"/><path class="b" d="M491.81,454.24c3.27-1.95,6.53-4.05,9.37-6.6,.2-.18-.07-.54-.29-.38-3.07,2.26-6.05,4.58-9.3,6.59-.24,.15-.02,.53,.22,.38h0Z"/><path class="b" d="M371.04,434.34c15.83,.18,31.59,1.29,47.41,1.78,.72,.02,.7-1.04,0-1.11-15.7-1.53-31.65-1.45-47.41-1.3-.4,0-.4,.62,0,.63h0Z"/><path class="b" d="M376.99,438.02c7.68-1.19,14.81-.53,22.49-.11,.4,.02,.48-.6,.09-.69-7.29-1.78-15.4-1.02-22.72,.3-.33,.06-.19,.55,.14,.5h0Z"/><path class="b" d="M568.95,359.39c13.56-.31,27.09-1.83,40.59-3.16,.23-.41,.44-.83,.7-1.23-1.84,.11-3.64,.23-5.38,.39-14.02,1.32-28.1,2.97-42.2,2.98-28.2,.03-56.55-4.81-84.66-6.92-.5-.04-.49,.72,0,.78,29.85,3.31,60.88,7.86,90.94,7.17Z"/></g><g><path class="b" d="M514.31,809.01c44.61-2.46,85.46-29.43,119.84-55.84,42.55-32.68,81.66-70.87,115.98-112.06,69.42-83.29,123.57-182.46,154.27-286.56,12.05-40.88,21.94-84.62,17.58-127.46-.22-2.16-3.37-1.77-3.31,.34,2.35,85.52-30.17,172.23-67.15,247.83-48.04,98.21-113.93,186.93-196.98,258.29-38.99,33.5-86.99,70.96-140.34,74.35-.72,.05-.6,1.14,.11,1.1h0Z"/><g><path class="b" d="M705.92,521.43c6.81-3.79,14.24-6.62,20.93-10.52,16.1-9.37,18.82-20.18,17.67-37.83-1.31-20.18,10.04-27.8,27.52-34.6,13.49-5.25,27.61-8.74,41-14.27,45.31-18.73,83.61-59.11,98.8-105.81,.27-.81-.95-1.37-1.24-.54-16.28,45.8-55.95,85.55-101.02,103.51-19.62,7.82-48.18,11.21-63.09,27.64-13.92,15.34,3.8,37.37-12.21,52.84-7.38,7.13-17.76,10.76-27.24,15.46-.33,1.39-.7,2.77-1.11,4.13Z"/><path class="b" d="M513.82,810.26c19.89-5.07,32.28-18.94,37.1-38.65,.81-3.3,1.44-6.73,2.23-10.12-.37,.02-.69-.08-1.03-.11-1.35,.23-2.53,.48-3.68,.76-.16,.64-.33,1.28-.48,1.93-4.92,20.73-14,36.02-35.76,41.91-2.86,.78-1.18,4.99,1.63,4.28Z"/></g><path class="b" d="M910.55,318.02c-2.4,48.76-10.49,97.44-9.14,146.37,.56,20.44,7.74,39.54,9.12,59.75,1.98,29-19.26,45.19-34.14,67.12-6.25,9.21-11.69,19.11-14.94,29.81-3.39,11.14-3.53,23.04-7.32,34.05-6.82,19.81-22.04,17.82-38,25.62-7.8,3.81-13.54,9.97-18.3,17.1-15.85,23.74-20.37,51.58-54.08,54.36-25.58,2.11-46.61,4.17-66.13,22.84-6,5.74-10.95,12.49-17.24,17.94-10.89,9.43-20.89,10.65-33.99,6.07-8.88-3.1-16.55-6.7-26.17-5.01-29.37,5.15-54.06,28.96-84.84,11.85-3.15-1.75-5.4,3.43-2.24,5.15,19.76,10.75,41.42,5.82,61.42-1.82,16.12-6.16,28.31-13.33,45.99-7.16,8.71,3.04,16.83,6.75,26.25,4.56,10.06-2.33,17.47-10.28,24.23-17.53,14.93-16.03,30.26-28.68,52.79-31.65,25.44-3.35,44.57-1.17,59.49-25.25,6.42-10.37,10.56-22,17.25-32.22,10.65-16.26,24.56-16.13,40.45-23.95,20.3-10,18.12-34.91,24.04-53.41,9.12-28.53,35.36-44.99,46.36-71.73,7.56-18.37,2.79-36.76-1.08-55.37-12-57.71,2-119.03,1.58-177.46,0-.76-1.3-.8-1.34-.03h0Z"/><path class="b" d="M706.2,520.5c58.5-21.47,117.06-46.25,167.77-82.98,1.5-1.09-.2-3.41-1.7-2.33-50.99,36.93-108.54,59.94-165.89,84.74-.05,.19-.11,.38-.17,.56Z"/><path class="b" d="M688.1,602.32c43.53-14.76,90.51-22.69,126.04-52.51,1.3-1.09-.18-3.18-1.57-2.15-36.81,27.34-81.36,35.9-123.14,51.42-.41,1.09-.87,2.16-1.33,3.23Z"/><path class="b" d="M607.05,722.22c44.5-16.79,88.7-35.05,127.17-63.34,1.27-.93-.15-2.85-1.44-1.97-38.59,26.22-80.82,44.37-123.56,61.93-.71,1.14-1.42,2.27-2.17,3.38Z"/><path class="b" d="M544.97,783.87c32.63-9.23,65.39-20.27,95.78-35.45,1.38-.69,.6-2.91-.87-2.28-31.36,13.56-62.82,26.04-95.39,36.49-.82,.26-.34,1.47,.47,1.24h0Z"/><path class="b" d="M584.87,803.64c31.91-21.88,58.15-51.42,84.27-79.68,1.03-1.11-.79-2.49-1.83-1.44-27.11,27.45-51.31,57.87-82.77,80.68-.29,.21,.03,.65,.33,.45h0Z"/><path class="b" d="M654.58,802.11c48.65-36.66,56.12-101.47,86.78-150.68,.93-1.49-1.22-3.24-2.17-1.72-30.92,49.29-38.87,112.37-85.46,151.24-.71,.59,.1,1.73,.85,1.16h0Z"/><path class="b" d="M778.45,739.23c23.29-62.24,31.59-128.18,39.46-193.8,.29-2.41-3.44-2.99-3.73-.57-7.85,65.45-16.12,131.07-36.55,194.02-.17,.53,.61,.9,.81,.35h0Z"/><path class="b" d="M907.18,492.67c-8.21-35.48-12.27-70.88-12.38-107.32,0-1.79-2.76-1.48-2.76,.29,.11,36.12,3.56,72.6,14.28,107.23,.15,.47,.97,.29,.86-.2h0Z"/><path class="b" d="M862.84,457.69c-10.34,22.45-4.14,49.06-2.35,72.7,2.41,31.93,3.87,63.52,1.31,95.48-.11,1.41,1.99,1.77,2.19,.34,3.86-27.02,3.38-54.94,1.04-82.07-2.48-28.78-7.78-57.68-1.67-86.31,.07-.31-.4-.43-.53-.15h0Z"/><path class="b" d="M754.18,491.82c30.56-10.28,60.49-23.59,87.73-40.94,.43-.27-.03-.87-.46-.63-28.02,16.38-56.7,30.57-87.39,41.25-.2,.07-.08,.38,.12,.31h0Z"/><path class="b" d="M777.58,476.18c31.6-11.52,61.74-27.76,88.01-48.85,.37-.3-.06-.89-.44-.6-26.91,20.56-55.92,37.25-87.76,48.96-.31,.12-.13,.6,.18,.48h0Z"/><path class="b" d="M799.88,459.08c10.75-6.23,21.53-12.39,32.23-18.71,.29-.17-.02-.58-.31-.42-10.69,6.28-21.3,12.72-31.94,19.09-.02,.01,0,.04,.02,.03h0Z"/><path class="b" d="M812.04,441.74c4.78-2.24,9.46-4.76,13.8-7.76,.35-.24-.04-.77-.39-.54-4.39,2.89-8.82,5.61-13.54,7.95-.21,.1-.09,.45,.13,.35h0Z"/><path class="b" d="M865.24,497.54c1.14,23.87,3.52,47.63,7.11,71.25,.12,.78,1.34,.65,1.21-.13-3.78-23.6-6.3-47.33-7.59-71.2-.03-.48-.76-.4-.74,.08h0Z"/><path class="b" d="M873.43,510.19c-1.14,15.93-.85,33.34,4.41,48.58,.21,.61,1.2,.38,1.11-.26-2.5-16.25-5.29-31.59-4.53-48.17,.03-.63-.94-.8-.99-.15h0Z"/><path class="b" d="M881.65,528.09c.41,3.83,.79,7.66,1.27,11.48,.07,.57,.95,.48,.88-.09-.48-3.82-1.07-7.63-1.64-11.45-.05-.33-.55-.28-.51,.05h0Z"/><path class="b" d="M899.59,482.63c1.41,12.87,2.94,26.3,6.92,38.67,.2,.61,1.22,.38,1.11-.26-2.24-12.89-5.53-25.48-7.33-38.48-.06-.45-.75-.38-.7,.07h0Z"/><path class="b" d="M886.09,372.33c-9.95,12.84-21.73,22.49-34.95,31.73-.6,.42,.05,1.24,.66,.89,13.78-7.88,25.29-19.66,34.62-32.37,.15-.21-.16-.46-.32-.25h0Z"/><path class="b" d="M876.09,393.16c-5.11,5.11-10.59,9.72-16.03,14.47-.58,.51,.09,1.47,.72,.98,5.73-4.46,10.88-9.73,15.77-15.08,.26-.28-.2-.63-.46-.37h0Z"/><path class="b" d="M691.59,591.78s.08,.03,.12,.01c34.54-10.68,69.98-23.68,101.28-42,.36-.21,.03-.82-.35-.64-33.24,15.64-65.81,30.96-100.93,42.1-.04,.18-.08,.36-.13,.53Z"/><path class="b" d="M718.14,574.81c16.43-5.25,32.49-11.42,48.2-18.53,.35-.16,.14-.71-.21-.55-15.67,7.2-31.7,13.47-48.09,18.81-.18,.06-.08,.33,.1,.28h0Z"/><path class="b" d="M723.81,563.38c17.51-4.88,34.86-10.81,51.3-18.6,.36-.17,.15-.75-.22-.59-16.8,7.19-33.66,13.73-51.24,18.77-.28,.08-.11,.49,.16,.41h0Z"/><path class="b" d="M711.09,525.77c38.99-13.64,76.64-30.47,112.78-50.47,.48-.26-.03-.95-.5-.69-36.06,19.89-73.66,36.86-112.45,50.7-.29,.1-.12,.55,.17,.45h0Z"/><path class="b" d="M734.17,523.74c17.04-6.45,33.93-13.28,50.67-20.49,.44-.19,.17-.88-.26-.69-16.7,7.3-33.56,14.22-50.57,20.76-.27,.1-.11,.52,.16,.41h0Z"/><path class="b" d="M783.31,521.87c15.6-8.14,34.57-9.51,48.58-20.68,.46-.37-.06-1.09-.55-.75-14.7,10.3-32.6,12.68-48.16,21.2-.13,.07,0,.29,.12,.23h0Z"/><path class="b" d="M796.27,522.73c9.53-4.11,19.26-7.94,28.59-12.49,.42-.21,.19-.87-.26-.69-9.65,3.85-19.03,8.47-28.48,12.76-.26,.12-.11,.53,.16,.41h0Z"/><path class="b" d="M823.18,568.12c-3.25,29.41-8.3,58.47-14.17,87.46-.14,.7,.94,.86,1.1,.17,6.59-28.8,10.85-58.14,13.73-87.52,.04-.42-.61-.53-.66-.1h0Z"/><path class="b" d="M824.62,601.59c-1.24,12.33-3.2,24.85-3.46,37.24,0,.45,.7,.44,.77,.02,1.91-12.23,2.16-24.86,3.1-37.2,.02-.26-.38-.32-.4-.06h0Z"/><path class="b" d="M835.02,583.55c-2.17,23.32-5.63,46.43-8.31,69.68-.09,.76,1.03,.93,1.17,.18,4.09-22.99,6.05-46.49,7.87-69.75,.04-.47-.69-.59-.73-.11h0Z"/><path class="b" d="M839.12,614.39c-1.37,8.49-2.8,17.07-3.61,25.63-.06,.59,.81,.73,.91,.14,1.41-8.49,2.22-17.15,3.06-25.71,.02-.24-.33-.29-.37-.06h0Z"/><path class="b" d="M853.96,501.74c3.28,38.16,3.33,76.18,2.05,114.43-.02,.67,1.01,.86,1.06,.16,2.73-38.12,1.27-76.67-2.48-114.66-.04-.4-.66-.34-.63,.06h0Z"/><path class="b" d="M849.93,536.38c.14,12.08,.1,24.17,.57,36.24,.03,.72,1.1,.59,1.1-.11-.03-12.07-.58-24.14-.93-36.2-.01-.48-.74-.39-.74,.08h0Z"/><path class="b" d="M801.92,590.12c-7.15,45.18-17.78,89.37-29.56,133.52-.16,.58,.84,.88,1.02,.29,13.47-43.55,22.47-88.68,29.16-133.72,.06-.4-.56-.5-.62-.1h0Z"/><path class="b" d="M787.56,620.85c-4.85,21.11-9.92,42.18-14.24,63.4-.08,.38,.49,.45,.58,.09,5.16-21.03,9.6-42.25,14.24-63.4,.08-.37-.5-.46-.58-.09h0Z"/><path class="b" d="M772.34,654.29c-.95,4.3-1.9,8.61-2.85,12.91-.13,.58,.79,.72,.91,.14,.89-4.31,1.78-8.63,2.66-12.94,.1-.47-.63-.57-.73-.11h0Z"/><path class="b" d="M733.99,676.34c-7.68,21.59-16.9,42.52-25,63.92-.22,.58,.61,.94,.88,.38,9.87-20.52,17.35-42.53,24.73-64.04,.14-.4-.47-.67-.61-.26h0Z"/><path class="b" d="M736.87,692.06c-3,9.19-6.88,18.09-9.83,27.28-.18,.56,.58,.91,.85,.37,4.17-8.64,6.83-18.23,9.52-27.41,.1-.36-.42-.6-.54-.24h0Z"/><path class="b" d="M739.21,704.83c-.34,.79-.68,1.59-1.03,2.38-.2,.46,.51,.77,.71,.31,.34-.79,.68-1.59,1.03-2.38,.2-.46-.51-.77-.71-.31h0Z"/><path class="b" d="M615.79,706.86c37.79-12.32,75.26-28.35,109.03-49.47,.59-.37-.05-1.19-.63-.86-35.05,19.55-70.54,36.85-108.55,49.95-.25,.09-.1,.46,.14,.38h0Z"/><path class="b" d="M639.97,690.8c16.8-7.44,33.7-14.67,50.42-22.3,.39-.18,.16-.79-.24-.62-16.86,7.32-33.55,15.04-50.33,22.54-.24,.11-.1,.49,.14,.38h0Z"/><path class="b" d="M682.95,613.49c28.81-9.16,57.99-18.45,85.91-30.1,.55-.23,.23-1.06-.33-.86-28.67,9.99-56.96,20.85-85.9,30.13-.54,.17-.23,1,.32,.83h0Z"/><path class="b" d="M668.95,628.2c20.43-6.62,40.74-13.64,60.7-21.48,.53-.21,.22-1.02-.32-.83-19.55,7.14-39.1,14.19-58.78,20.88-.53,.5-1.07,.96-1.6,1.42Z"/><path class="b" d="M667.95,634.76c12.73-5.57,25.78-9.98,38.75-14.9,.45-.17,.19-.82-.26-.69-13.27,3.73-26.17,9.33-38.71,15-.37,.17-.15,.75,.22,.59h0Z"/><path class="b" d="M598.56,733.09c24.34-9.05,48.95-17.85,72.55-28.43,.76-.34,.33-1.48-.46-1.21-23.8,8.1-47.15,18.07-70.46,27.77-.54,.63-1.07,1.26-1.62,1.87Z"/><path class="b" d="M594.4,739.03c18.05-9.06,36.66-15.87,55.85-22.03,.51-.16,.21-.89-.29-.76-19.3,5.21-37.98,13.22-55.74,22.31-.29,.15-.11,.63,.18,.48h0Z"/><path class="b" d="M603.75,741.56c10.63-4.6,21.43-8.76,32.4-12.47,.59-.2,.24-1.1-.34-.9-10.96,3.75-21.75,7.93-32.36,12.57-.5,.22-.2,1.01,.3,.79h0Z"/><path class="b" d="M576.97,759.67c22.17-6.65,44.34-13.31,66.51-19.96,.8-.24,.33-1.46-.46-1.21-22.1,6.85-44.19,13.7-66.29,20.55-.41,.13-.17,.74,.24,.62h0Z"/><path class="b" d="M632.27,783.61c17.75-19.24,36.15-39.1,51.19-60.57,.35-.51-.34-1.06-.75-.6-17.51,19.71-33.52,40.92-50.66,60.99-.12,.15,.1,.32,.23,.18h0Z"/><path class="b" d="M658.55,766.48c8.91-9.69,17.46-19.99,24.3-31.28,.4-.65-.51-1.42-.96-.76-7.41,11.06-14.84,21.78-23.66,31.78-.17,.2,.14,.44,.32,.25h0Z"/><path class="b" d="M673.87,759.22c2.27-3.05,4.48-6.24,6.12-9.69,.11-.24-.27-.48-.41-.24-1.97,3.26-3.84,6.55-6.06,9.66-.17,.23,.18,.51,.35,.28h0Z"/><path class="b" d="M554.7,787.16c14.69-5.91,29.69-10.89,44.46-16.54,.67-.26,.28-1.24-.39-1.04-15.1,4.57-29.79,10.81-44.29,16.99-.37,.16-.15,.74,.22,.59h0Z"/><path class="b" d="M561.61,788.28c6.65-4.06,13.48-6.13,20.72-8.73,.37-.13,.24-.74-.16-.68-7.41,1.1-14.63,4.97-20.86,8.99-.28,.18,.02,.59,.31,.42h0Z"/><path class="b" d="M630.42,667.88c26.06-7.44,53.03-14.74,77.69-25.57,13.55-5.95,26.5-13.28,39.57-20.21,10.53-5.59,23.92-10.45,30.84-20.69,.2-.29-.22-.63-.43-.34-8.57,11.27-25.49,17.02-37.7,23.5-12.48,6.62-24.89,13.56-37.95,18.99-22.85,9.5-47.23,15.59-70.93,22.92-.37,.46-.72,.94-1.07,1.42Z"/></g><g><path class="b" d="M653.53,557.89c-.62-.83-.99-1.76-1.26-2.72-34.35,36.36-71.12,68.28-114.73,94.41-38.41,23.02-76.76,35.75-121.14,38.5-43.86,2.72-88.04,1.82-131.86-1.12-55.13-3.7-110.75-10.7-163.85-26.52-1.79-.53-2.52,2.2-.77,2.78,44.98,14.82,92.43,21.46,139.45,25.79,47.06,4.33,94.54,6.02,141.78,4.22,37.05-1.41,70.95-5.92,105.06-21.62,49.16-22.61,96.56-55.55,134.13-94.58,5.21-5.41,10.26-10.97,15.27-16.57-.7-.82-1.4-1.66-2.08-2.57Z"/><g><path class="b" d="M415.68,598.29c-.51-.96-.82-1.96-1.03-2.98-.14-.24-.21-.48-.33-.72-10.26-1.91-20.66-4.8-30.39-5.25-18.05-.84-32.81,7.32-46.82,17.94-21.49,16.29-39.9,32.5-68.33,33.9-12.35,.61-25.32-5.91-37.33-3.05-12.25,2.92-23.6,11.25-35.75,15.23-8.22,2.69-17.28,5.51-26,5.16-7.21-.29-14.1-3.39-21.21-4.37-10.58-1.45-20.08,.68-29.54,5.38-3.07,1.53-.38,6.08,2.69,4.6,18-8.74,29.49-.89,47.23,.52,9.57,.76,19.65-1.72,28.64-4.7,9.65-3.2,18.12-7.64,27.29-11.73,14.56-6.51,31.15,.18,46.57-1.09,19.53-1.6,36.17-9.91,51.39-21.84,20.29-15.9,37.82-33.57,65.68-30.4,9.26,1.06,18.93,3.88,28.59,5.57-.46-.71-.94-1.39-1.36-2.16Z"/><path class="b" d="M655.88,503.69c.95-2.06,2.16-3.89,3.56-5.54-5.76-.59-11.51-.89-17.25,.09-15.34,2.61-26.61,13.24-37.85,23.15-8.89,7.84-17.94,15.79-29.71,18.79-3.36,.86-6.75,1.28-10.17,1.42,1.5,1.82,2.73,3.62,3.65,5.4,9.49-1,18.44-4.08,27.15-10.22,20.64-14.55,33.46-33.74,60.61-33.1Z"/></g><path class="b" d="M696.09,576.34c-1.24,.23-2.51,.42-3.82,.52-2.18,11.51-5.14,22.59-10.27,32.45-12.17,23.37-40.3,30.23-53.31,52.62-6.14,10.58-8.36,22.79-11.73,34.4-4.41,15.2-11.43,28.79-22.71,40.06-10.65,10.64-24.08,18.76-38.71,22.52-15.84,4.07-32.24,1.5-48.22,4.26-11.37,1.97-20.41,7.16-30.21,13.06-17.88,10.76-35.54,15.28-56.16,10.4-27.77-6.57-47.32-29.8-76.17-33.26-28.18-3.38-60.19,7.44-85.52-9.47-20.66-13.79-31.23-36.9-57.75-41.12-21.28-3.38-37.47-2.08-52.92-19.55-8.35-9.44-15.12-18.44-26.92-23.73-3.18-1.43-5.92,3.34-2.74,4.68,22.3,9.45,30.47,35.03,55.54,40.41,16.21,3.48,32.56,1.12,46.88,11.24,11.2,7.91,19.28,19.29,29.81,27.99,19.09,15.78,42.45,15.26,65.97,14.57,17.57-.52,34.58-.12,50.71,7.8,13.35,6.56,24.94,16.03,38.88,21.5,25.66,10.08,49.75,6.93,72.94-7.14,16.54-10.03,31.18-13.43,50.47-14.47,13.8-.74,26.71-2.41,39.47-8.09,20.26-9.03,37.1-25.68,46.08-45.98,4.91-11.1,6.81-23.11,10.68-34.55,6.55-19.35,19.61-28.79,35.34-40.34,21.24-15.6,30.11-35.77,34.75-60.76-.11,0-.23,0-.34-.01Z"/><path class="b" d="M652.17,550.17c-.23-.49-.48-.98-.7-1.49-28.39,1.07-56.65-.68-84.8-4.1,.44,.67,.84,1.34,1.2,2,27.83,3.75,55.89,4.94,84.07,4.73,.04-.38,.14-.76,.23-1.14Z"/><path class="b" d="M660.37,565.24c-14.09,42.86-30.53,85.2-42.04,128.65-.19,.7,.89,1.22,1.22,.51,18.66-39.85,31.44-83.31,44.2-125.86-.4-.45-.75-.94-1.05-1.44-.79-.58-1.56-1.21-2.33-1.86Z"/><g><path class="b" d="M599.69,609.65c-27.05,4.49-54.04,3.19-81.05,.46-1.05,.53-2.11,1.03-3.17,1.51,28.25,2.85,56.55,4.43,84.81,.17,1.4-.21,.82-2.37-.59-2.14Z"/><path class="b" d="M415.68,598.29c-.17-.33-.3-.66-.43-1-7.9-1.06-15.79-2.12-23.69-3.19-.34-.05-.5,.47-.15,.53,8.16,1.42,16.33,2.76,24.51,4.05-.08-.14-.18-.26-.25-.4Z"/></g><path class="b" d="M485.4,773.88c44.41-36.43,74.13-86.37,88.68-141.71,.65-2.49-3.23-3.55-3.85-1.06-13.73,55.15-44.05,103.5-84.99,142.61-.11,.1,.05,.25,.16,.16h0Z"/><path class="b" d="M274.27,646.04c38.32,5.35,75.99,14.31,114.04,21.24,36.28,6.61,72.13,8.96,108.98,6.81,1.44-.08,1.39-2.38,0-2.22-74.64,8.98-149.06-19.83-222.93-26.48-.37-.03-.46,.6-.09,.65h0Z"/><path class="b" d="M305.43,756.92c60.52-7.43,122.99-23.73,163.51-72.39,1.37-1.64-1.03-4.01-2.35-2.35-36.91,46.36-103.91,67.42-161.16,74.27-.3,.04-.3,.51,0,.47h0Z"/><path class="b" d="M160.8,658.41c23.3,10.3,49.28,10.75,73.55,18,22.29,6.66,44.64,15.28,68.23,14.94,1.64-.02,1.64-2.56,0-2.55-24.07,.17-47.01-8.97-69.85-15.45-23.55-6.67-48.7-6.88-71.59-15.76-.46-.18-.8,.61-.34,.81h0Z"/><path class="b" d="M182.77,704.04c15.99-2.25,31.68,1.59,47.53,3.33,15.74,1.73,31.73,2.71,47.57,2.3,26.7-.69,54.02-5.45,78.32-16.8,.84-.39,.23-1.88-.64-1.52-29.63,12.17-59.76,15.9-91.66,15.04-26.71-.72-55.16-8.7-81.62-4.16-1.21,.21-.68,1.98,.5,1.82h0Z"/><path class="b" d="M649.79,543.6c-13.09-.73-26.08-2.12-39.18-3.52-.64-.07-.79,1-.15,1.12,13.01,2.47,26.36,3.46,39.66,3.65-.12-.41-.22-.83-.32-1.25Z"/><path class="b" d="M648.6,539.77c-5.95-.42-11.96-1.09-17.92-1.19-.32,0-.3,.44,0,.48,5.93,.71,11.97,.84,17.92,1.22,.33,.02,.33-.49,0-.52h0Z"/><path class="b" d="M648.83,534.28c-4.62-.47-9.31-.75-13.78-.18-.44,.06-.46,.67,0,.7,4.56,.36,9.15,.32,13.74,.43,0-.31,.03-.63,.04-.94Z"/><path class="b" d="M649.19,530.15c-4.66-.39-9.33-.78-14-.96-.31-.01-.3,.45,0,.48,4.62,.5,9.27,.8,13.91,1.1,.03-.21,.06-.41,.08-.62Z"/><path class="b" d="M654.03,509.75c-3.63,.06-7.27,.08-10.93,.05-.55,0-.54,.8,0,.85,3.59,.32,7.21,.45,10.82,.51,0-.46,.04-.93,.11-1.41Z"/><path class="b" d="M670.15,572.97c-6.57,20.09-14.01,39.93-19.58,60.31-.14,.51,.6,.7,.78,.22,6.6-17.16,11.73-35.04,17.41-52.53,.82-2.52,1.62-5.03,2.42-7.55-.35-.15-.7-.3-1.03-.46Z"/><path class="b" d="M676,575.13c-2.62,8.92-5.7,17.67-9.7,26.27-.25,.53,.51,1,.8,.47,4.54-8.29,7.59-17.26,10.02-26.43-.37-.1-.74-.2-1.11-.31Z"/><path class="b" d="M681.08,576.29c-1.67,4.7-3.58,9.27-5.56,13.9-.2,.47,.45,.89,.7,.41,2.35-4.51,4.14-9.31,5.64-14.19-.26-.04-.53-.08-.79-.12Z"/><path class="b" d="M584.2,605.27c-19.01,1.42-37.44,3.59-56.55,2.09-1.13-.09-2.25-.21-3.38-.31-.43,.25-.86,.49-1.29,.73,.55,.05,1.1,.12,1.64,.17,20.15,1.87,39.52-.33,59.57-1.83,.54-.04,.55-.89,0-.85Z"/><path class="b" d="M618.72,593.6c-14.89,1.69-29.71,3-44.71,2.93-11.46-.05-22.92-.41-34.38-.16-.34,.27-.68,.55-1.02,.82,26.82-.65,53.37,.93,80.18-3.02,.33-.05,.25-.62-.08-.58Z"/><path class="b" d="M620.43,588.51c-24.76,4.96-49.64,3.85-74.55,2.54-.49,.44-.98,.88-1.47,1.31,25.53,1.26,51.05,1.91,76.14-3.42,.28-.06,.16-.48-.12-.43Z"/><path class="b" d="M607.35,580.88c-16.48-.56-33.07-.72-49.62-1.36-.2,.17-.4,.34-.6,.51,1.26,.03,2.53,.06,3.79,.09,15.48,.42,30.95,.81,46.43,1.2,.29,0,.28-.43,0-.44Z"/><path class="b" d="M585.66,569.56c-5.86-.8-11.76-1.62-17.67-2.34-.13,.24-.27,.49-.41,.73,6.03,.51,12.05,1.05,18.06,1.76,.08,0,.1-.13,.02-.15Z"/><path class="b" d="M458.78,668.62c-29.78,.57-60.4-6.23-89.71-11.02-29.04-4.75-57.81-10.65-86.67-16.36-.76-.15-1.1,1.01-.32,1.18,29.73,6.44,59.83,11.63,89.84,16.63,28.24,4.71,58.11,11.58,86.87,10.21,.4-.02,.41-.64,0-.63h0Z"/><path class="b" d="M295.47,640.43c47.86,1.63,94.12,16.59,141.9,18.31,.53,.02,.52-.77,0-.81-47.54-3.76-94.11-17.38-141.9-17.9-.26,0-.26,.4,0,.41h0Z"/><path class="b" d="M303.74,637.13c30.01-.03,59.71,2.2,89.52,5.34,.39,.04,.49-.63,.09-.69-29.61-4.18-59.74-5.41-89.61-4.99-.21,0-.21,.33,0,.33h0Z"/><path class="b" d="M313.55,628.67c23.08-.35,45.89,1.39,68.72,4.64,.69,.1,1-.95,.29-1.07-22.79-3.78-45.95-4.98-69.02-4.17-.38,.01-.38,.6,0,.59h0Z"/><path class="b" d="M426.55,634.07c45.06,8.78,90.94,11.09,136.66,6.94,.73-.07,.74-1.21,0-1.15-45.58,4.17-91.49,1.98-136.48-6.44-.42-.08-.6,.56-.18,.64h0Z"/><path class="b" d="M569.7,633.32c-35.37,.55-70.96-3.56-106.24-5.8-.36-.02-.35,.53,0,.55,35.05,2.72,71.07,7.78,106.24,6.02,.5-.02,.5-.78,0-.78h0Z"/><path class="b" d="M582.1,623.38c-15.98,2.26-32.36,.07-48.36-1.04-16.31-1.14-32.65-2.55-48.99-3.19-.55-.02-.54,.8,0,.85,17.34,1.65,34.77,2.46,52.15,3.58,15.08,.97,30.32,2.74,45.35,.33,.35-.06,.2-.58-.15-.53h0Z"/><path class="b" d="M642.06,569.86c1.65,6.77-4.11,16.51-6.48,22.69-2.19,5.72-4.36,11.46-6.53,17.18-4.7,12.37-9.39,24.74-14.09,37.11-9.37,24.65-19.17,49.01-31.18,72.51-.29,.57,.55,1.07,.86,.5,13.03-24.1,22.65-49.91,32.36-75.47,5.08-13.36,10.16-26.73,15.24-40.1,2.54-6.68,5.06-13.37,7.56-20.06,1.81-4.85,4.38-9.35,2.74-14.5-.1-.32-.58-.19-.5,.14h0Z"/><path class="b" d="M577.58,641.8c-7.46,20.62-15.46,41.19-26.24,60.34-10.94,19.45-25.4,36.12-39.21,53.5-.3,.38,.21,.93,.55,.55,14.71-16.54,28.68-34.21,39.45-53.59,10.72-19.28,18.45-39.94,25.52-60.78,.02-.05-.06-.06-.07-.02h0Z"/><path class="b" d="M544.14,724.65c-4.55,8.42-9.13,16.97-15.35,24.31-4.7,5.55-10.67,9.91-14.78,15.95-.25,.36,.32,.67,.57,.34,4.91-6.5,11.5-11.38,16.47-17.85,5.34-6.96,9.43-14.77,13.5-22.51,.14-.27-.27-.52-.41-.24h0Z"/><path class="b" d="M539.71,741.65c-4.16,6.74-9.37,12.63-13.79,19.15-.24,.36,.29,.73,.58,.45,5.56-5.35,9.87-12.68,13.78-19.26,.22-.37-.35-.7-.57-.34h0Z"/><path class="b" d="M626.18,587.14c-16.02,47.46-35.9,93.12-57.38,138.33-.14,.3,.29,.56,.45,.26,11.45-21.52,20.9-44.17,30.32-66.63,9.9-23.62,19.59-47.33,27.18-71.81,.11-.37-.45-.52-.57-.16h0Z"/><path class="b" d="M594.35,656.41c-4.18,12.45-9.54,24.29-15.33,36.07-.16,.32,.3,.59,.48,.28,6.47-11.45,11.38-23.7,15.46-36.18,.13-.39-.48-.55-.61-.17h0Z"/><path class="b" d="M603.98,659.41c-4.13,12.66-9.34,24.82-15.67,36.54-.19,.36,.35,.67,.54,.32,6.28-11.8,11.45-24.02,15.52-36.75,.08-.25-.31-.36-.39-.11h0Z"/><path class="b" d="M631.97,626.85c-10.34,34.46-24.97,66.59-41.48,98.45-.23,.44,.41,.82,.67,.39,18.16-30.59,31.3-64.66,41.21-98.74,.07-.25-.32-.36-.39-.11h0Z"/><path class="b" d="M487.13,675.54c-20.25,30.71-49.43,50.23-81.56,66.95-.51,.26-.06,1.02,.45,.77,31.37-15.74,63.87-36.04,81.6-67.44,.18-.31-.28-.58-.48-.28h0Z"/><path class="b" d="M501.81,672.22c-15.07,31.51-41.17,52.75-69.54,71.81-.41,.28-.04,.93,.39,.67,28.86-17.05,55.55-41.36,69.63-72.2,.15-.32-.32-.6-.48-.28h0Z"/><path class="b" d="M505.35,684.07c-9.03,16.2-20.61,29.8-33.96,42.56-.38,.37,.18,.91,.57,.57,14.02-11.75,25.24-26.81,33.95-42.8,.2-.38-.37-.71-.57-.34h0Z"/><path class="b" d="M505.04,700.66c-3.27,4.71-7.01,8.9-10.81,13.16-.39,.44,.22,1.07,.65,.65,4.1-3.98,7.58-8.73,10.73-13.48,.24-.36-.33-.68-.57-.34h0Z"/><path class="b" d="M557.29,643.9c-8.37,22.28-19.15,43.36-33.66,62.29-14.37,18.76-31.83,34.29-49.15,50.21-.34,.31,.16,.79,.5,.5,36.17-30.76,67.88-67.03,82.77-112.87,.1-.3-.36-.41-.46-.13h0Z"/><path class="b" d="M491.58,756.42c-14.14,13.61-30.32,24.45-48.28,32.37-.67,.3-.09,1.29,.58,.99,17.94-8.12,34.04-19.17,48.09-32.97,.26-.25-.13-.64-.39-.39h0Z"/><path class="b" d="M448.17,751.4c-18.35,12.58-37.99,20.34-59.31,26.25-.53,.15-.31,.93,.23,.82,21.22-4.31,41.61-14.44,59.25-26.78,.17-.12,0-.41-.17-.29h0Z"/><path class="b" d="M387.33,748.11c-11.51,3.82-23.16,6.89-34.9,9.92-.65,.17-.37,1.15,.28,1,11.78-2.7,23.37-6.42,34.76-10.42,.31-.11,.18-.6-.14-.5h0Z"/><path class="b" d="M373.63,757.09c-3.4,1.04-6.84,1.87-10.34,2.48-.54,.09-.31,.92,.23,.82,3.49-.67,6.92-1.56,10.29-2.66,.4-.13,.23-.77-.18-.64h0Z"/><path class="b" d="M452.81,686.06c-15.69,22.24-41.28,35.08-65.4,46.38-24.43,11.45-49.57,18.87-75.99,23.99-.36,.07-.29,.7,.09,.65,26.88-3.32,53.2-13,77.52-24.65,23.08-11.06,50.54-23.43,64.29-46.07,.2-.33-.29-.6-.51-.3h0Z"/><path class="b" d="M393.63,722.17c-28.76,15.64-59.42,26.72-91.32,33.93-.6,.14-.35,1.06,.26,.93,31.98-6.91,62.59-18.81,91.27-34.51,.23-.13,.02-.48-.21-.35h0Z"/><path class="b" d="M400.15,691.83c-23.7,19.69-49.08,32.57-78.05,42.61-.56,.19-.34,1.03,.25,.89,28.76-6.76,56.68-23.12,78.14-43.16,.23-.21-.11-.53-.34-.34h0Z"/><path class="b" d="M365.45,709.55c-21.44,10.77-43.61,18.91-66.38,26.33-.4,.13-.24,.75,.18,.64,23-6.2,45.25-15.77,66.41-26.62,.23-.12,.03-.47-.21-.35h0Z"/><path class="b" d="M341.86,712.13c-13.58,6.43-27.58,11.16-42.15,14.75-.58,.14-.33,1.02,.25,.89,14.65-3.34,28.71-8.55,42.21-15.13,.34-.17,.04-.67-.3-.51h0Z"/><path class="b" d="M211.66,708.26c29.25,5.67,59.04,9.37,88.86,9.86,.55,0,.54-.83,0-.85-29.82-1.3-59.33-4.12-88.68-9.65-.42-.08-.6,.56-.18,.64h0Z"/><path class="b" d="M231.39,717.81c14.44,5.76,29.52,8.46,45.06,7.45,.59-.04,.6-.95,0-.92-15.49,.6-30.41-1.53-44.93-6.99-.29-.11-.41,.35-.13,.46h0Z"/><path class="b" d="M307.33,691.11c-22.29,7.05-44.6,9.62-67.89,9.86-.5,0-.5,.74,0,.78,22.91,1.45,46.41-2.7,68.04-10.1,.33-.11,.2-.64-.15-.53h0Z"/><path class="b" d="M244.58,692.78c-12.39,1.77-24.68,2.3-37.17,2.52-.6,.01-.59,.91,0,.92,12.49,.37,25.04-.83,37.38-2.69,.49-.07,.28-.82-.21-.75h0Z"/><path class="b" d="M212.36,689.11c-4.05,.38-8.11,.7-12.15,1.15-.49,.06-.51,.81,0,.78,4.05-.3,8.1-.74,12.15-1.12,.52-.05,.52-.86,0-.81h0Z"/><path class="b" d="M137.79,676.79c15.89,4.54,32.2,8.22,48.67,9.8,.59,.06,.74-.97,.14-1.05-16.46-2.22-32.64-4.86-48.71-9.14-.25-.07-.36,.32-.11,.39h0Z"/><path class="b" d="M163.88,687.75c5.88,1.6,12,2.6,18.11,2.43,.59-.02,.6-.92,0-.92-6.11-.09-12.01-.58-17.96-2.04-.35-.08-.49,.44-.15,.53h0Z"/><path class="b" d="M176,695.29c1.77,.19,3.53,.38,5.3,.58,.66,.07,.66-.98,0-1.03-1.77-.16-3.53-.31-5.3-.47-.6-.05-.58,.86,0,.92h0Z"/><path class="b" d="M225.81,664.17c18.16,4.49,35.26,11.07,52.85,17.24,.55,.19,.93-.7,.4-.95-16.7-7.81-35.19-12.72-53.09-16.9-.39-.09-.56,.51-.17,.61h0Z"/><path class="b" d="M239,660.51c14.05,4.76,27.06,11.22,40.5,17.38,.45,.2,.83-.4,.39-.67-12.5-7.66-26.82-12.87-40.74-17.28-.36-.12-.52,.45-.16,.57h0Z"/><path class="b" d="M241.77,656.3c22.64,4.46,43.71,11.98,64.92,20.91,.5,.21,.86-.64,.37-.88-20.38-10.09-42.81-16.55-65.08-20.82-.51-.1-.73,.68-.22,.78h0Z"/><path class="b" d="M433.29,679.65c-33.78-2.62-66.95-8.09-100.16-14.68-.51-.1-.73,.66-.22,.78,32.87,7.77,66.72,12.02,100.37,14.41,.33,.02,.33-.49,0-.52h0Z"/><path class="b" d="M368.95,677.79c-4.25-.84-8.5-1.67-12.75-2.51-.51-.1-.73,.68-.22,.78,4.24,.88,8.47,1.77,12.71,2.65,.6,.13,.86-.81,.26-.93h0Z"/><path class="b" d="M429.24,613.96c-16.5-5.7-33.35-9.98-50.57-12.85-.79-.13-1.13,1.09-.33,1.21,17.26,2.66,34.17,6.72,50.75,12.21,.36,.12,.51-.45,.16-.57h0Z"/><path class="b" d="M396.92,613.98c-3.12-.55-6.26-.93-9.43-1.13-.64-.04-.64,.97,0,1,3.09,.12,6.17,.4,9.23,.85,.46,.07,.67-.63,.2-.71h0Z"/></g></g><g><path class="b" d="M647.83,100.35c-5.25,2.93-17.35,10.72-12.98,18.38,4.47,7.83,20.99,4.74,27.79,3.7,12.51-1.92,24.42-4.6,37.2-5.06,10.75-.39,21.55,.03,32.28-.91,13.94-1.21,31.39-4.11,41.96-14.31,23.77-22.92-41.54-21.59-49.88-20.95-19.69,1.51-39.13,5.81-58.19,10.81-11.98,3.14-24.47,6.13-29.01,18.84-.75,2.11,2.6,3.01,3.35,.92,6.82-19.09,49.86-22.5,66.86-25.14,11.35-1.76,22.94-2.9,34.43-2.63,3.99,.1,20.9,.29,22.66,2.31,1.21,5.14,2.43,10.28,3.64,15.41-2.6,1.77-5.37,3.22-8.31,4.33-19.8,8.97-41.61,8.08-62.85,9.44-8.05,.51-15.85,1.51-23.76,3.06-7.06,1.38-14.18,3.46-21.43,3.47-3.49-.38-6.97-.76-10.46-1.14-3.92-9.88-1.64-16.64,6.84-20.28,.16-.1,.02-.35-.15-.26h0Z"/><path class="b" d="M657.79,96.67c17.42-14.08,38.92-20.1,60.65-23.85,10.77-1.86,21.83-3.58,32.77-4.02,18.24-.74,26.35,9.25,24.93,26.61-.06,.76,1.16,1.11,1.47,.4,3.09-6.9,2.16-18.18-2.87-24.18-7.99-9.54-25.08-5.88-35.78-4.7-26.22,2.89-63.73,7.44-82.16,28.75-.6,.69,.3,1.56,.99,.99h0Z"/><path class="b" d="M637.08,117.39c.67,13.24,12.06,22.38,23.25,27.82,15.51,7.55,34.8,3.03,51.2,.37,18.34-2.98,40.51-4.6,54.41-18.35,9.67-9.57,15.26-22.69,12.79-36.24-.57-3.15-5.28-1.79-4.78,1.32,5.67,35.3-34.92,44.38-60.4,48.99-24.26,4.39-68.65,9.99-75.39-24.06-.12-.6-1.1-.47-1.07,.14h0Z"/><path class="b" d="M660.12,95.75c9.23-2.89,18.09-.89,27.38-2.1,8.07-1.05,15.52-3.9,23.76-4.73,8.37-.85,15.74,.34,24.12,.33,10.06-.01,18.62-3.81,29.41-1.1,.42,.1,.73-.53,.31-.72-7.35-3.39-11.86-4.3-19.76-4.18-10.79,.16-20.43-3.01-31.43-1.82-7.55,.81-14.07,3.25-21.09,5.78-10.8,3.89-22.33,3.55-32.77,8.37-.1,.05-.03,.21,.08,.18h0Z"/><path class="b" d="M769.26,88.84c.22,.19,.44,.38,.66,.58,.14,.13,.35-.08,.21-.21-.22-.19-.44-.38-.66-.58-.14-.13-.35,.08-.21,.21h0Z"/><path class="b" d="M638.5,119.86c8.89,6.5,20.35,5.21,30.79,4.98,13.87-.3,27.63-1.88,41.41-3.36,12.86-1.38,25.93-2.26,38.58-5.1,9.05-2.03,19.92-4.12,25.62-12.12,.25-.35-.33-.68-.57-.33-7.35,10.45-25.26,12.11-36.92,13.51-10.89,1.31-21.82,2.32-32.72,3.48-10.75,1.15-21.49,2.29-32.3,2.62-10.92,.33-24.03,2.07-33.62-4.14-.29-.19-.54,.26-.27,.46h0Z"/><path class="b" d="M639.12,118.82c4.63,25.64,45.51,16.34,62.27,14.17,26.99-3.48,51.56-8.78,71.46-28.65,.87-.87-.48-2.22-1.36-1.36-17.43,17.18-37.75,24.21-61.55,27.54-19.79,2.77-61.19,13.86-70.19-11.88-.14-.4-.71-.24-.64,.18h0Z"/><path class="b" d="M638.48,117.84c2.51,27.66,37.98,27.58,57.91,24.84,20.27-2.79,40.59-8.44,59.58-16.05,11.05-4.43,16.27-9.74,19.11-21.37,.41-1.67-2.14-2.38-2.58-.71-5.82,21.8-44.13,26.68-63.03,30.62-20.33,4.24-61.67,11.22-68.85-17.63-.29-1.16-2.25-.96-2.14,.29h0Z"/><path class="b" d="M644.77,121.07c3.23,9.23,12.28,17.66,22.53,17.56,.47,0,.6-.75,.11-.84-10.04-2.01-18.35-6.84-22.17-16.85-.11-.29-.58-.17-.48,.13h0Z"/><path class="b" d="M654.23,124.49c3.71,8.07,11.96,13.35,20.12,16.24,.55,.2,.89-.65,.39-.94-7.67-4.39-15.79-7.17-20.17-15.5-.12-.23-.45-.03-.34,.2h0Z"/><path class="b" d="M661.82,125.44c4.68,6.13,11.49,15,20.04,15.12,.4,0,.69-.39,.59-.77-.52-1.96-2.05-3.19-3.44-4.61-2.13-2.18-4.32-4.31-6.56-6.39-1.2-1.12-2.64-2.28-.91,.02,.8,1.07,2.32,1.95,3.35,2.77,2.28,1.82,4.57,3.7,7.04,5.25,.28,.18,.62-.24,.36-.47-4-3.49-8.49-6.37-12.43-9.95-.33-.3-.81,.18-.49,.49,2.38,2.27,4.71,4.59,6.97,6.97,.81,.85,3.03,2.5,3.35,3.62,.72,2.59-2.41,.8-3.83,.05-5.52-2.88-9.71-7.69-13.59-12.45-.2-.24-.63,.09-.44,.34h0Z"/><path class="b" d="M675.58,125.59c1.79,2.68,4.12,5.05,7,6.56,.64,.33,1.2-.61,.57-.97-2.74-1.58-5.16-3.42-7.13-5.93-.2-.25-.62,.08-.44,.34h0Z"/><path class="b" d="M681.93,127.13c1.31,.93,2.6,1.93,3.98,2.75,.28,.17,.63-.25,.36-.47-1.26-1.05-2.65-1.94-3.99-2.88-.37-.26-.71,.34-.35,.6h0Z"/><path class="b" d="M701.54,127.22c1.93,.82,3.88,1.61,5.78,2.48,.46,.21,.74-.47,.27-.63-1.99-.67-3.95-1.42-5.92-2.15-.17-.06-.3,.23-.13,.3h0Z"/><path class="b" d="M710.36,127.62c.89,.23,1.77,.45,2.66,.68,.43,.11,.62-.56,.18-.67-.89-.22-1.78-.43-2.67-.65-.41-.1-.59,.53-.18,.64h0Z"/><path class="b" d="M722.95,126.72c.17,0,.17-.26,0-.26s-.17,.26,0,.26h0Z"/><path class="b" d="M718.07,111.81c12.08-.97,23.82-3.28,35.37-6.97,.45-.14,.48-.81,0-.95l-1.37-.38c-.54-.15-.74,.64-.23,.83-1.11-.41-4.64,1.49-6.03,1.89-2.89,.83-5.8,1.57-8.73,2.23-6.27,1.4-12.61,2.33-19.01,2.95-.25,.02-.26,.42,0,.4h0Z"/><path class="b" d="M738.52,105.28c3.4-1.04,7.01-1.53,10.37-2.65,.33-.11,.3-.68-.09-.65-3.48,.27-7.13,1.66-10.42,2.79-.32,.11-.19,.61,.14,.51h0Z"/><path class="b" d="M747.77,99.19c1.18-.36,2.35-.73,3.53-1.1,.53-.16,.3-1-.23-.83-1.17,.39-2.34,.77-3.51,1.16-.48,.16-.28,.92,.21,.76h0Z"/><path class="b" d="M751.91,94.78c.49-.07,.99-.15,1.48-.22,.5-.07,.29-.85-.21-.76l-1.47,.25c-.48,.08-.27,.8,.2,.73h0Z"/><path class="b" d="M673.33,86.69c2.46,.78,4.97,1.81,7.51,2.29,.19,.04,.25-.21,.08-.29-2.38-1-5.04-1.52-7.53-2.22-.14-.04-.2,.18-.06,.22h0Z"/><path class="b" d="M675.87,85.44c1.76,.5,3.52,1.02,5.25,1.61,1.72,.58,3.43,1.42,5.21,1.74,.4,.07,.69-.47,.29-.69-3.08-1.7-7.26-2.25-10.67-2.95-.19-.04-.27,.23-.08,.29h0Z"/><path class="b" d="M680.14,82.9c3.38,.89,6.59,2.12,9.9,3.24,.35,.12,.6-.46,.25-.6-3.2-1.37-6.67-2.23-10.06-2.98-.23-.05-.32,.29-.1,.35h0Z"/><path class="b" d="M689.63,80.48c3.56,1.21,7.25,2.37,10.98,2.96,.41,.06,.6-.54,.18-.64-3.71-.87-7.39-1.61-11.04-2.74-.27-.08-.37,.33-.11,.41h0Z"/><path class="b" d="M698.7,78.95c2.06,.36,3.84,1.16,5.81,1.78,.36,.12,.57-.41,.25-.6-1.76-1.08-3.97-1.46-5.99-1.7-.29-.03-.36,.47-.07,.52h0Z"/><path class="b" d="M706.7,78.52s.04-.07,0-.07-.04,.07,0,.07h0Z"/><path class="b" d="M667.18,89.45c3.64,.66,7.45,1.93,11.14,2.12,.64,.03,.75-.94,.15-1.1-3.53-.99-7.52-.99-11.14-1.53-.33-.05-.48,.45-.14,.51h0Z"/><path class="b" d="M665.99,91.97c3.85-2.59,7.74-5.07,12.03-6.87,4.41-1.86,8.77-2.26,13.41-3.08,.54-.09,.54-.99,0-1.08-9.3-1.59-18.72,5.4-25.63,10.69-.2,.15-.02,.49,.2,.34h0Z"/><path class="b" d="M669.96,91.22c8.96-3.7,18.38-7.67,27.94-9.41,.76-.14,.57-1.33-.18-1.33-4.81,0-9.65,2.48-14.07,4.2-4.71,1.84-9.35,3.83-13.95,5.93-.34,.15-.09,.75,.25,.6h0Z"/><path class="b" d="M682.62,88.02c3.74-1.44,7.55-2.54,11.43-3.53,.39-.1,.23-.69-.17-.61-3.9,.87-7.69,2.19-11.39,3.69-.27,.11-.16,.55,.12,.45h0Z"/><path class="b" d="M746.56,78.51c10.08,1,19.9,2.31,27.63,9.41,.58,.53,1.44-.33,.86-.86-7.78-7.18-18.4-8.23-28.5-8.98-.28-.02-.27,.4,0,.43h0Z"/><path class="b" d="M753,74.23c8.85,2.45,17.88,5.77,23.6,13.37,.51,.68,1.5-.07,.93-.72-6.45-7.42-15.02-10.9-24.33-13.39-.47-.13-.67,.6-.2,.73h0Z"/><path class="b" d="M760.51,73.28c3.15,.89,6.18,2.07,9.11,3.55,.48,.24,.89-.48,.42-.71-3.01-1.45-6.12-2.6-9.36-3.44-.39-.1-.56,.5-.17,.61h0Z"/><path class="b" d="M757.91,83.39c1.32-1.66,2.76-3.22,4.41-4.57,1.66-1.35,3.59-2.27,5.27-3.58,.35-.27-.03-.9-.43-.75-3.84,1.45-7.29,5.35-9.72,8.53-.2,.27,.26,.63,.47,.36h0Z"/><path class="b" d="M765.39,84.82c1.82-2.91,4.15-4.7,6.79-6.8,.51-.41-.14-1.17-.68-.88-2.86,1.54-5.17,4.53-6.79,7.28-.26,.44,.41,.83,.68,.4h0Z"/><path class="b" d="M772.03,84.49c.8-.47,1.59-.94,2.39-1.41,.58-.35,.05-1.27-.53-.91-.79,.48-1.58,.96-2.37,1.44-.56,.34-.05,1.22,.52,.88h0Z"/><path class="b" d="M645.16,113.06c2.58-4.7,6.1-8.64,10.15-12.12,4.8-4.14,9.66-5.32,15.53-7.24,.46-.15,.28-.84-.2-.73-5.53,1.25-10.28,2.71-14.62,6.42-4.52,3.85-8.45,8.19-11.22,13.46-.13,.24,.24,.46,.37,.22h0Z"/><path class="b" d="M648.51,121.5c-1.92-8.71,7.34-16.25,13.72-20.15,.44-.27,.15-1.09-.37-.88-7.17,2.94-16.14,12.73-13.6,21.09,.05,.16,.29,.1,.25-.07h0Z"/><path class="b" d="M657.51,111.14c1.75-1.57,3.51-3.15,5.26-4.72,.25-.23-.12-.6-.37-.37-1.73,1.6-3.46,3.19-5.19,4.79-.2,.19,.1,.49,.3,.3h0Z"/></g><g><path class="b" d="M541.93,468.67c2.91-22.55,37.43-9.84,51.05-11.98,13.25-2.08,23.41-8.71,37.59-8.81,12.92-.09,24.06,.91,36.41-3.39,7.07-2.46,36.62-15.71,34.08,4.48-.23,1.85,2.71,1.86,2.92,0,1.23-11.01-3.92-13.95-14.18-13.75-5.25,.1-10.1,1.27-15.08,2.85-9.82,3.12-17.52,7-28.16,7.39-5.32,.2-10.67-.47-15.99-.5-8.27-.04-15.51,.74-23.31,3.69-15.55,5.87-26.46,4.17-42.2,3.86-11.26-.22-23.88,3.27-24.91,16.14-.09,1.15,1.63,1.1,1.77,0h0Z"/><path class="b" d="M541.54,464.47c-17.53,37.23,63.46,42.88,83.66,41.03,22.7-2.07,42.66-14.75,60.46-28.17,11.81-8.9,23.12-21.43,16.87-37.06-.64-1.6-3.18-1-2.64,.73,9.29,29.69-46.17,56.58-68.99,60.6-18.83,3.31-103.59-1.56-88.22-36.46,.34-.77-.78-1.45-1.15-.67h0Z"/><path class="b" d="M549.43,457.17c-7.88,5.44-2.4,12.65,3.72,17.2,17.13,12.75,40.71,17.43,61.62,16.5,20.85-.93,40.99-7.55,59.19-17.58,10.02-5.52,32.62-16.74,28.99-31.44-.31-1.27-2.28-.73-1.96,.54,3.62,14.55-24.23,27.69-34.87,32.79-12.29,5.9-25.21,10.12-38.7,12.15-13.55,2.04-27.09,1.79-40.51-1.11-6.94-1.5-50.2-14.98-36.93-28.37,.34-.35-.11-.99-.54-.69h0Z"/><path class="b" d="M698.65,438.44c-5.05-16.08-11.7-28.44-28.17-34.65-19.3-7.27-44.41-6.46-64.47-3.94-19.29,2.42-81.18,26.45-58.97,54.73,1.51,1.92,4.19-.78,2.69-2.69-13.22-16.81,15.27-32.83,27.46-39.26,15.24-8.04,31.23-9.94,48.23-10.13,12.5-.14,25.53-.43,37.78,2.35,19.03,4.32,28.03,16.43,34.6,33.83,.2,.52,1.03,.32,.85-.24h0Z"/><path class="b" d="M695.72,436.59c-8.6-4.91-17.05-5.75-26.88-5.52-16.7,.39-33.58,1.57-50.21,3.14-10.51,.99-20.15,3.1-29.85,7.34-12.93,5.66-26.83,5.52-39.47,12.41-1.7,.93-.18,3.52,1.52,2.6,11.17-6.09,22.28-5.4,33.77-9.51,11.96-4.28,20.89-8.35,34.03-9.59,12.01-1.13,24.1-1.64,36.12-2.65,13.68-1.15,27.43-3.3,40.35,2.85,.71,.34,1.33-.67,.62-1.07h0Z"/><path class="b" d="M554.57,423.64c-13.23,9.75-24.86,26.16-14.74,42.34,1.06,1.69,3.75,.12,2.67-1.56-9.56-14.98,1.04-30.25,12.82-39.81,.54-.44-.18-1.39-.75-.97h0Z"/><path class="b" d="M622.24,435.81c5.77-1.38,11.51-4.87,15.55-9.22,.23-.25-.07-.68-.38-.49-5.2,3.2-9.31,7.43-15.27,9.37-.22,.07-.13,.39,.09,.34h0Z"/><path class="b" d="M641.63,423.2c.31-.3,.63-.59,.94-.89,.18-.17-.13-.43-.28-.21-.24,.35-.49,.7-.73,1.05-.03,.04,.03,.09,.07,.05h0Z"/><path class="b" d="M593.54,454.98c7.44-1.51,12.73-.79,19.58,1.94,2.25,.9,6.54,2.04,8.35,3.44,2.43,1.87,3.43,5.3,4.95,7.88,.23,.39,.83,.13,.73-.31-1.84-7.68-3.87-9.21-11.12-11.92-8.31-3.11-14.12-4-22.7-1.79-.5,.13-.29,.87,.21,.77h0Z"/><path class="b" d="M677.5,447.25c-4.31-2.81-9.01-4.28-14.05-5.16-2.17-.38-2.29,2.99-.38,2.78,4.97-.54,9.69,.68,14.12,2.91,.36,.18,.65-.32,.31-.53h0Z"/><path class="b" d="M578.07,423.92c4.7-2.45,9.54-4.57,14.53-6.36,.7-.25,.37-1.39-.31-1.11-4.98,2.03-9.79,4.39-14.45,7.09-.25,.14-.03,.51,.22,.38h0Z"/><path class="b" d="M585.84,423.97c2.31-1.14,4.61-1.63,7.1-2.16,.53-.11,.42-1.01-.13-.96-2.56,.24-5.07,1.31-7.28,2.58-.35,.2-.04,.71,.31,.53h0Z"/><path class="b" d="M590.9,428.46c1.34-.54,2.68-1.07,4.02-1.61,.82-.33,.34-1.52-.48-1.13-1.31,.62-2.61,1.23-3.92,1.85-.49,.23-.14,1.09,.38,.89h0Z"/><path class="b" d="M660.99,461.5c1.76-.22,3.52-.44,5.29-.66,1.15-.14,.92-1.82-.21-1.56-1.74,.4-3.48,.79-5.22,1.19-.57,.13-.46,1.12,.14,1.04h0Z"/><path class="b" d="M663.49,463.84c.84-.07,1.68-.15,2.51-.22,.26-.02,.26-.44,0-.41-.84,.09-1.68,.19-2.51,.28-.22,.03-.23,.37,0,.35h0Z"/><path class="b" d="M545.48,461.89c-6.24,13.86,9.72,22.01,20,26.6,16.37,7.31,34.24,12.48,52.33,11.71,17.96-.77,33.67-8.65,48.97-17.43,13.62-7.82,26.65-16.41,34.52-30.41,.11-.2-.2-.38-.31-.18-6.78,12.98-19.01,21.18-31.41,28.25-12.52,7.13-25.48,14.43-39.73,17.36-15.25,3.14-31.02,1.18-45.8-3.29-12.8-3.87-45.75-13.53-38.15-32.42,.1-.25-.32-.43-.43-.18h0Z"/><path class="b" d="M550.66,471.53c20.03,16.99,46.17,24.85,72.25,21.03,14.74-2.16,28.77-7.52,42.31-13.57,12.98-5.8,27.41-11.36,36.58-22.71,.22-.28-.16-.67-.4-.4-8.52,10.11-20.89,15.26-32.66,20.62-13,5.93-26.39,11.4-40.47,14.18-27.5,5.43-55.68-1.65-77.39-19.37-.16-.13-.39,.09-.23,.23h0Z"/><path class="b" d="M547.24,459.39c-7.47,6.01-5.41,16.63-.17,23.22,7.5,9.43,17.6,16.34,29.99,16.15,.8-.01,.8-1.25,0-1.24-9.61,.17-17.72-3.91-24.51-10.51-7.09-6.9-14.04-18.84-4.98-27.28,.23-.21-.1-.52-.33-.33h0Z"/><path class="b" d="M542.47,440.66c-2.27,6.08-.46,14.4,5.51,17.79,.61,.35,1.32-.5,.77-1-4.88-4.41-7.63-9.96-5.65-16.62,.12-.41-.48-.56-.63-.17h0Z"/><path class="b" d="M541.05,442.13c-2.74,6.57-1.33,14.15,3.76,19.19,.55,.55,1.4-.3,.85-.85-4.8-4.94-6.46-11.66-4.28-18.24,.07-.22-.26-.3-.34-.09h0Z"/><path class="b" d="M565.68,451.76c6.54,.6,13.21,1.15,19.38-1.54,7.86-3.43,15.04-7.79,23.23-10.71,.6-.21,.34-1.18-.27-.97-6.02,2.12-11.91,4.31-17.48,7.47-8.3,4.71-15.38,5.85-24.87,5.43-.21,0-.2,.31,0,.32h0Z"/><path class="b" d="M579.1,451.64c5.96,.95,11.22-.29,16.72-2.74,10.05-4.47,18.23-9.7,29.66-9.97,10.18-.25,20.23,.58,30.43-.13,10.14-.7,20.32-1.81,30.37-3.34,.47-.07,.37-.89-.11-.84-10.09,1.05-20.13,2.54-30.26,3.28-10.19,.74-20.25,.1-30.43,.24-6.91,.1-13.06,1.76-19.25,4.77-8.7,4.23-16.98,9.83-27.1,8.48-.15-.02-.18,.24-.04,.26h0Z"/><path class="b" d="M688.36,434.43c-7.42-.87-13.57,1.67-20.47,4.09-9.69,3.4-19.42,3.5-29.57,3.21-13.32-.39-27.11-.15-37.56,9.22-.51,.46,.24,1.2,.75,.75,12.8-11.36,29.87-8.7,45.6-8.81,6.35-.05,12.42-.68,18.49-2.6,7.68-2.43,14.43-6.08,22.76-5.35,.32,.03,.31-.46,0-.5h0Z"/><path class="b" d="M636.15,432.73c13.96,6.33,28.15,3.21,42.82,1.41,.61-.08,.62-1.05,0-.97-14.47,1.86-28.71,5.12-42.68-.76-.18-.08-.32,.24-.14,.32h0Z"/><path class="b" d="M560.6,452.25c17.69,1.87,31.38-2.19,48.47-5.46,20.04-3.83,40.64-3.93,60.8-6.84,5.98-.86,14.82-3.61,3.19-2.8-11.7,.81-22.64,3.84-34.52,3.95-16.07,.15-30.66,4.46-46.3,8.35-2.76,.69-1.59,4.99,1.18,4.26,16.27-4.29,31.22-8.84,48.12-8.68,14.75,.14,29.18-4.9,43.62-7.52,1.47-.27,1.14-2.71-.35-2.62-19.98,1.27-39.93,2.49-59.82,5.11-22.18,2.93-41.7,10.96-64.37,11.54-.46,.01-.44,.66,0,.71h0Z"/><path class="b" d="M541.54,451.54c-1.68,2.91-2.08,6.18-1.22,9.42,.22,.82,1.16,1.16,1.88,.77,2.74-1.49,4.86-3.56,6.42-6.26,.93-1.6-1.11-2.91-2.41-1.86-2.48,2-4.51,4.41-6.09,7.18-.88,1.53,1.34,3.41,2.53,1.95,1.58-1.93,3.03-3.95,4.29-6.11,.84-1.45,2.36-3.64,1.22-5.35-2.86-4.32-7.52,4.91-8.47,6.72,1.08,.46,2.17,.91,3.25,1.37,.74-2.25,1.47-4.49,2.16-6.76,.56-1.83-1.7-2.78-2.97-1.73-1.29,1.07-2.84,2.04-3.73,3.47-.66,1.06,.45,2.66,1.7,2.21,1.73-.62,3.11-2.04,4.55-3.17-.99-.58-1.98-1.15-2.97-1.73-.75,2.24-1.46,4.5-2.16,6.75-.59,1.9,2.33,3.19,3.25,1.37,.62-1.23,1.28-2.42,2.02-3.58,.32-.5,.93-1.15,1.16-1.7,.61-.44,.54-.8-.21-1.11-.46-.77-.76-.75-.9,.04-.81,.74-1.38,2.55-1.99,3.5-.76,1.21-1.59,2.37-2.48,3.49,.84,.65,1.69,1.3,2.53,1.95,1.42-2.57,3.23-4.75,5.48-6.63-.8-.62-1.61-1.24-2.41-1.86-1.24,2.23-2.95,4.16-5.07,5.59,.63,.26,1.25,.51,1.88,.77-.98-2.63-.96-5.31,.2-7.89,.44-.97-.9-1.81-1.45-.85h0Z"/><path class="b" d="M544.8,463.65c-2.41,5.1-2.87,8.47-2.19,14.05,.17,1.37,1.53,1.96,2.62,1.08,3.32-2.67,2.98-2.28,3.44-6.58,.22-2.06-2.74-2.12-3.37-.46-2.2,5.78-1.23,9.63,3.24,13.87,1.45,1.37,3.91,.02,3.37-1.96-1.18-4.37-2.67-7.95-4.86-11.86-1.01-1.81-4.31-1.12-4.1,1.11,2.77,29.11,49.75,32.99,72.09,31.61,30.97-1.92,58.57-16.68,79.02-39.53,.8-.89-.53-2.21-1.31-1.31-16.15,18.43-39.17,29.72-63.27,33.14-20.3,2.88-78.11,3.86-82.19-24.5-1.34,.56-2.68,1.13-4.02,1.7,2.2,3.28,3.79,6.85,4.77,10.71,1.12-.65,2.25-1.31,3.37-1.96-.93-3.37-1.86-6.73-2.78-10.1-1.12-.15-2.25-.3-3.37-.46,.18-2.71,.35-5.42,.53-8.14,.13-.56-.7-.98-.97-.41h0Z"/><path class="b" d="M546.16,465.42c2.06,16.85,20.14,24.88,34.46,29.67,22.32,7.47,46.61,7.77,69,.53,2.17-.7,1.29-3.9-.94-3.41-31.06,6.84-84.98,6.58-101.62-27.04-.21-.41-.97-.24-.91,.25h0Z"/></g><g><path class="b" d="M413.99,591.99c.71-21.94,33.41-14.21,45.85-16.22,14.45-2.33,25.1-11.64,40.24-13.07,10.89-1.03,21.63-.62,31.96-4.87,6.63-2.73,39.09-23.19,38.44-.97-.05,1.88,2.89,1.88,2.92,0,.15-9.66-3.42-13.27-12.94-12.8-7.85,.38-14.42,3.5-21.34,6.86-14.1,6.84-26.35,7.51-41.67,9.12-8.1,.85-14.84,3.21-22.07,6.61-14.52,6.81-25.36,5.68-40.48,7-11.01,.96-22.88,5.65-22.67,18.34,.02,1.14,1.73,1.14,1.77,0h0Z"/><path class="b" d="M413.16,587.85c-13.88,38.79,69.17,36.44,88.48,32.46,20.66-4.26,37.32-17.18,52.91-30.73,12.15-10.56,25.12-24.84,16.47-41.61-.83-1.61-3.03-.19-2.37,1.38,12.05,28.51-40.68,60.61-62.47,66.85-19.45,5.56-103.64,8.07-91.75-28,.27-.82-.99-1.15-1.28-.35h0Z"/><path class="b" d="M420.29,579.77c-9.37,7.91,2.87,15.62,9.91,19.01,17.32,8.34,37.07,10.81,56.06,8.54,22.32-2.68,43.38-12.02,61.64-24.92,9.35-6.61,28.62-18.93,23.81-32.59-.43-1.23-2.4-.7-1.96,.54,5.09,14.38-21.71,30.11-31.45,36.04-10.91,6.64-22.64,11.92-34.97,15.3-12.36,3.38-25.19,4.75-37.97,3.84-7.06-.5-57.42-9.24-44.44-25.13,.36-.44-.19-1-.63-.63h0Z"/><path class="b" d="M567.05,546.67c-7.32-17.27-16.37-29.04-35.57-32.64-18.51-3.48-39.61-.89-57.92,2.74-18.84,3.73-81.35,33.9-55.97,60.5,1.69,1.77,4.38-.92,2.69-2.69-15.83-16.57,16.54-38,27.44-44.39,14.94-8.76,31.4-11.11,48.37-12.72,11.54-1.09,23.23-2.23,34.74-.33,18.13,2.99,27.72,14.27,35.46,29.99,.26,.52,.98,.06,.76-.45h0Z"/><path class="b" d="M564.04,545.2c-21.99-9.51-52.39,.4-74.77,4.59-12.2,2.28-21.96,5.99-32.83,11.59-12.03,6.2-24.99,7.36-36.4,15.09-1.59,1.08-.09,3.69,1.52,2.6,10.04-6.8,18.91-6.87,29.46-11.17,10.84-4.43,19.71-10.88,31.55-13.48,11.39-2.5,23.03-3.95,34.5-5.98,15.41-2.73,31.17-7.43,46.5-2.1,.65,.23,1.12-.85,.48-1.13h0Z"/><path class="b" d="M422.17,545.93c-12.12,10.88-22.15,28.35-10.61,43.37,1.35,1.76,3.82-.1,2.43-1.88-10.82-13.83-1.56-30.16,9.05-40.62,.57-.56-.29-1.41-.88-.88h0Z"/><path class="b" d="M490.75,551.47c5.61-1.92,11.06-5.98,14.63-10.72,.18-.24-.18-.61-.42-.42-4.89,3.65-8.58,8.32-14.35,10.82-.18,.08-.05,.39,.14,.32h0Z"/><path class="b" d="M508.85,537.06c.28-.32,.56-.65,.84-.97,.17-.2-.15-.43-.28-.21-.21,.38-.42,.75-.64,1.13-.02,.04,.04,.09,.07,.05h0Z"/><path class="b" d="M464.01,573.32c6.6-2.02,11.66-2.29,18.4-.34,2.41,.7,5.07,1.19,7.38,2.17,4.08,1.74,5.8,4.79,8.24,8.16,.24,.34,.89,.15,.73-.31-2.55-7.4-4.61-8.79-12.14-10.82-8.61-2.31-14.39-2.69-22.82,.37-.47,.17-.29,.92,.21,.77h0Z"/><path class="b" d="M546.9,557.55c-4.63-2.43-9.57-3.42-14.75-3.82-1.94-.15-1.77,3.23,.38,2.78,4.8-1,9.61-.16,14.14,1.6,.33,.13,.55-.4,.24-.57h0Z"/><path class="b" d="M445.64,543.89c4.47-2.92,9.12-5.51,13.95-7.78,.66-.31,.08-1.34-.58-.99-4.73,2.49-9.26,5.28-13.6,8.39-.23,.16-.02,.54,.22,.38h0Z"/><path class="b" d="M453.37,543.2c2.17-1.35,4.43-2.08,6.84-2.83,.6-.19,.35-1.06-.26-.94-2.47,.47-4.86,1.8-6.89,3.23-.32,.23-.03,.75,.31,.53h0Z"/><path class="b" d="M458.94,547.13c1.29-.67,2.58-1.33,3.87-2,.71-.36,.06-1.48-.63-1.07-1.24,.74-2.49,1.48-3.73,2.22-.54,.32-.06,1.13,.49,.84h0Z"/><path class="b" d="M531.9,573.29c1.75-.39,3.5-.79,5.24-1.18,1-.22,.55-1.86-.42-1.54-1.7,.56-3.4,1.13-5.1,1.69-.65,.21-.39,1.17,.28,1.02h0Z"/><path class="b" d="M534.55,575.39c.83-.15,1.66-.31,2.48-.46,.26-.05,.15-.45-.11-.4-.82,.17-1.65,.35-2.47,.52-.22,.05-.13,.38,.09,.34h0Z"/><path class="b" d="M416.86,584.84c-4.73,13.93,10.91,20.55,21.39,24.14,17.55,6.02,36.54,9.66,55.08,6.88,17.07-2.56,31.42-11.45,45.28-21.24,13.15-9.29,25.75-19.22,32.43-34.29,.1-.23-.23-.37-.32-.14-5.82,14.3-18.08,23.85-30.38,32.4-11.66,8.11-23.65,16.27-37.45,20.23-15.1,4.33-31.1,3.61-46.32,.33-13.27-2.85-44.85-9.15-39.26-28.2,.09-.29-.36-.41-.45-.13h0Z"/><path class="b" d="M422.97,593.92c23.12,16.05,51.8,20.68,78.8,12.63,13.69-4.08,26.44-10.74,38.76-17.87,11.52-6.67,23.91-13.15,31.42-24.54,.2-.3-.28-.58-.48-.28-7.91,11.45-20.74,18.06-32.55,24.8-11.89,6.79-24.21,13.1-37.39,16.99-26.73,7.88-55.22,3.42-78.39-12.01-.17-.12-.33,.16-.16,.28h0Z"/><path class="b" d="M418.4,582.13c-6.84,6.68-3.89,17.03,2.01,23.11,8.36,8.62,19.08,14.69,31.39,13.22,.78-.09,.79-1.33,0-1.24-8.68,1.06-16.7-1.62-23.69-6.73-8.35-6.1-18.32-17.91-9.37-28.03,.2-.23-.11-.55-.33-.33h0Z"/><path class="b" d="M411.84,563.93c-1.66,6.24,.87,14.38,7.13,17.18,.75,.34,1.3-.61,.64-1.09-5.25-3.89-8.46-9.15-7.15-15.91,.08-.41-.52-.58-.63-.17h0Z"/><path class="b" d="M410.57,565.55c-2.1,6.76,0,14.22,5.55,18.71,.6,.48,1.45-.35,.85-.85-5.25-4.44-7.61-11.01-6.06-17.76,.05-.22-.27-.31-.34-.09h0Z"/><path class="b" d="M435.99,572.79c6.54-.03,13.25-.11,19.12-3.38,7.57-4.2,14.27-9.23,22.21-12.95,.58-.27,.08-1.14-.51-.87-6.51,3.03-12.53,6.3-18.4,10.43-7.02,4.94-13.98,6.01-22.42,6.44-.21,.01-.21,.33,0,.32h0Z"/><path class="b" d="M449.37,571.38c16.43,1.07,27.64-14.93,43.65-16.93,9.52-1.19,19.12-1.31,28.63-2.78,11-1.7,22-3.98,32.79-6.7,.54-.14,.31-.93-.23-.82-9.95,2.02-19.79,4.47-29.8,6.17-10.5,1.79-21,1.96-31.51,3.3-16.04,2.05-27.25,18.14-43.53,17.49-.17,0-.17,.25,0,.27h0Z"/><path class="b" d="M556.47,543.73c-7-.14-12.66,2.59-18.86,5.49-10.3,4.81-20.46,5.9-31.69,6.68-12.78,.9-25.98,2.72-35.05,12.66-.46,.5,.29,1.25,.75,.75,11.24-12.19,27.84-11.59,43.08-13.05,6.78-.65,13.3-1.82,19.61-4.5,7.38-3.13,13.84-7.45,22.16-7.52,.32,0,.32-.5,0-.5h0Z"/><path class="b" d="M504.35,547.07c14.52,4.96,28.38,.47,42.81-2.74,.61-.14,.35-1.08-.26-.94-14.17,3.23-28.05,7.83-42.46,3.34-.22-.07-.31,.27-.09,.34h0Z"/><path class="b" d="M430.96,573.76c17.6,.17,30.99-5.19,47.57-10.04,17.81-5.21,36.44-7.66,54.56-11.5,5.26-1.12,22.96-6.74,8.5-4.35-11.66,1.93-21.87,6.59-33.93,7.29-15.89,.93-30.34,7.42-45.26,12.71-2.67,.95-1.49,5.25,1.18,4.27,15.95-5.9,30.11-11.5,47.09-13.33,14.73-1.59,28.53-7.63,42.75-11.65,1.69-.48,.95-2.84-.71-2.57-20.55,3.32-41.15,6.43-61.41,11.41-20.98,5.16-38.54,14.4-60.35,17.06-.44,.05-.47,.7,0,.71h0Z"/><path class="b" d="M411.99,574.81c-1.38,3.05-1.55,6.29-.39,9.45,.27,.72,1.14,1.27,1.88,.77,2.59-1.76,4.52-3.93,5.83-6.78,.7-1.52-1.09-3.15-2.41-1.86-2.28,2.23-4.09,4.79-5.4,7.7-.84,1.87,1.61,3.38,2.78,1.63,1.48-2.21,2.76-4.52,3.83-6.96,.68-1.55,1.68-3.74,.06-5.1-3.51-2.94-6.71,6.08-7.54,8.12,1.14,.32,2.29,.63,3.43,.95,.52-2.31,1.03-4.61,1.5-6.93,.34-1.68-1.65-3.05-2.97-1.73-1.19,1.19-2.6,2.33-3.43,3.81-.75,1.34,.74,2.76,2.06,2.06,1.49-.79,2.67-2.2,3.88-3.36-.99-.58-1.98-1.15-2.97-1.73-.53,2.3-1.02,4.62-1.5,6.93-.47,2.28,2.61,3.06,3.43,.95,.49-1.24,1.03-2.46,1.65-3.64,.28-.53,1.14-2.53,1.55-2.61-.44-.06-.88-.11-1.32-.17-.71-.35-.78,.84-1.03,1.42-.33,.78-.7,1.54-1.08,2.29-.71,1.4-1.5,2.75-2.35,4.07,.93,.54,1.86,1.08,2.78,1.63,1.16-2.7,2.73-5.07,4.79-7.16-.8-.62-1.61-1.24-2.41-1.86-1.08,2.47-2.66,4.59-4.73,6.32l2.01,.26c-1.22-2.52-1.31-5.18-.42-7.81,.3-.89-1.14-1.52-1.54-.65h0Z"/><path class="b" d="M416.34,586.71c-1.94,5.39-1.98,8.82-.75,14.37,.26,1.15,1.77,1.45,2.56,.68,3.04-2.97,2.85-2.49,2.9-6.83,.02-1.94-2.86-2.33-3.37-.46-1.58,5.79-.47,9.74,4.38,13.52,1.38,1.08,4.17,.16,3.37-1.96-1.58-4.21-3.33-7.61-5.92-11.35-1.43-2.07-4.5-.8-4.02,1.7,5.67,29.31,55.65,27.68,77.57,23.63,29.62-5.46,54.45-22.58,72.09-46.54,.71-.96-.91-1.91-1.6-.94-13.79,19.32-35.38,32.97-58.3,38.67-11.6,2.89-23.68,4.29-35.64,4.11-14.13-.21-45.43-1.9-49.88-20.11-1.34,.56-2.68,1.13-4.02,1.7,2.56,3.53,4.32,6.67,6.03,10.68,.92-.92,1.84-1.84,2.76-2.76-1.17-3.15-2.34-6.29-3.52-9.44-1.12-.15-2.25-.3-3.37-.46-.09-2.65-.17-5.29-.26-7.94,.09-.67-.79-.94-1.02-.28h0Z"/><path class="b" d="M417.9,588.33c3.96,17.98,26.34,24.29,42.1,27.14,21.7,3.92,43.79,1.52,64.03-7.24,1.84-.8,.53-3.85-1.36-3.23-30.2,9.78-84.03,14.89-103.89-17.05-.3-.47-1.01-.16-.89,.37h0Z"/></g><g><path class="b" d="M700.78,441.98c1.48-.64,2.96-1.23,4.42-1.76,5.96-2.17,12.53-3.47,18.18-6.45,6.82-3.6,10.84-9.22,16.28-14.32,5.54-5.2,12.16-8.46,19.11-11.4,11.16-4.73,21.48-8.44,30.38-16.89,6.53-6.21,11.14-11.95,19.43-15.81,9.35-4.35,14.89-2.88,18.19,7.27,.58,1.79-2.26,2.57-2.81,.78-1.09-3.51-13.65-5.22-16.65-4.23-3.44,1.14-7.1,4.53-9.65,6.9-4.62,4.29-8.19,9.4-13.36,13.14-9.1,6.58-20.33,9.2-30.27,14.11-10.94,5.4-16.84,15.77-27.14,21.69-5.92,3.4-16.57,5.67-25.55,9.41-.09-.83-.28-1.64-.54-2.43Z"/><path class="b" d="M778.62,465.26c-.31-.17-.57-.37-.91-.52-.91-.4-1.8-.73-2.69-1.06,2.91-1.46,5.28-2.81,6.95-3.96,19.16-13.15,58.42-60.19,37.85-82.85-1.19-1.31,.63-3.13,1.94-1.94,12.33,11.29,6.73,28.1-.3,40.69-10.54,18.87-23.26,38.15-42.29,49.32-.17,.1-.37,.21-.55,.31Z"/><g><path class="b" d="M755.68,459.6c-1.67-.15-3.41-.29-5.18-.41,7.58-2.79,14.86-6.37,21.69-10.7,11.5-7.28,21.74-16.56,30.53-26.93,7.25-8.56,27.87-31.98,18.64-43.88-.89-1.15,.69-2.4,1.6-1.23,9.62,12.46-7.94,32.78-15.44,42.31-12.81,16.27-28.87,30.3-47.74,39.09-1.35,.63-2.73,1.18-4.1,1.75Z"/><path class="b" d="M706.63,467.52c-.92-.09-1.84-.13-2.76-.25-1.91-.25-4.19-.65-6.45-1.27,.07-.45,.12-.82,.12-.83,.05-.25,.07-.5,.11-.75,3.46,.88,7.62,1.27,11.89,1.37-.96,.57-1.93,1.15-2.91,1.72Z"/></g><path class="b" d="M742.59,363.99c10.22-4.31,20.85-7.63,30.99-8.96,19.42-2.54,31.58,5.75,43.95,19.86,.37,.42-.22,1.04-.63,.63-13.79-14.03-28.21-20.95-47.78-16.52-8.13,1.84-16.19,4.88-24.01,8.32-.66-1.25-1.51-2.37-2.52-3.32Z"/><path class="b" d="M698.88,438.63c5.25-3.8,10.74-7.21,15.72-12.1,8.59-8.43,14.99-15.67,25.62-21.85,13.87-8.06,28.41-15.31,42.82-22.34,10.34-5.04,19.33-8.97,31.03-7.93,.78,.07,.81,1.25,0,1.24-15.29-.24-27.82,8.09-40.76,15.11-10.43,5.66-21.15,10.83-31.45,16.72-10.19,5.83-16.94,13.28-25.06,21.25-5.04,4.94-10.85,8.35-16.35,12.33-.39-.87-.92-1.68-1.57-2.43Z"/><path class="b" d="M746.35,403.09c4.69-4.19,6.69-9.72,10.19-14.72,.19-.27,.69-.12,.57,.24-1.9,5.63-5.82,11.17-10.54,14.76-.16,.12-.36-.14-.21-.28h0Z"/><path class="b" d="M759.16,383.97c.08-.43,.17-.85,.25-1.28,.04-.23,.43-.11,.34,.09-.17,.4-.34,.81-.51,1.21-.02,.05-.1,.03-.09-.02h0Z"/><path class="b" d="M727.54,431.89c6.54-5.15,12.11-6.92,20.38-7.47,8.44-.56,11-.37,16.16,6.39,.24,.31-.23,.77-.54,.54-2.97-2.14-5.34-4.59-9.22-5.25-2.37-.4-5.31,.16-7.68,.25-7.19,.26-12.69,1.96-18.62,6.15-.36,.26-.84-.34-.48-.63h0Z"/><path class="b" d="M801.73,392.14c-4.89-.25-9.71,.48-13.98,2.96-1.8,1.04-3.09-2.09-1.09-2.59,5.03-1.25,10.01-1.83,15.16-.98,.34,.06,.26,.63-.08,.61h0Z"/><path class="b" d="M791.93,410.28c1.44-1.07,2.89-2.14,4.33-3.21,.81-.6,1.7,.84,.8,1.37-1.53,.92-3.06,1.84-4.6,2.76-.6,.36-1.07-.52-.54-.92h0Z"/><path class="b" d="M795.48,412.04c.73-.42,1.45-.85,2.18-1.27,.23-.13,.44,.23,.21,.36l-2.21,1.22c-.2,.11-.38-.19-.18-.31h0Z"/><path class="b" d="M770.15,462.11c1.11-.59,2.23-1.17,3.31-1.81,13.44-7.99,23.06-20.15,32.35-32.44,9.29-12.28,18.35-25.48,19.44-41.31,.02-.23,.38-.23,.35,0-1.74,17.35-11.45,31.35-21.66,44.94-9.25,12.31-19.25,23.46-32.51,30.94-.43-.13-.86-.21-1.29-.33Z"/><g><path class="b" d="M760.53,460.12c-.61-.08-1.24-.15-1.86-.22,5.47-2.44,10.76-5.4,15.78-8.93,10.79-7.59,20.14-17.01,28.96-26.76,9.29-10.28,19.72-20.81,23.7-34.42,.1-.35,.63-.2,.54,.15-3.42,12.65-12.54,22.28-21.01,31.88-9.63,10.91-19.79,21.53-31.72,29.96-4.59,3.25-9.41,6.01-14.39,8.34Z"/><path class="b" d="M706.74,467.46c-3.09-.51-6.17-1.17-9.23-2,.02-.16,.04-.28,.04-.29,0-.02,0-.05,.01-.07,3.28,.83,6.58,1.48,9.88,1.95-.24,.14-.47,.28-.71,.41Z"/></g><path class="b" d="M701.17,440.48c9.06-3.51,14.68-7.18,20.52-14.96,3.83-5.11,8.32-9.52,12.97-13.89,.47-.44,1.18,.26,.71,.71-6.35,6-11.14,12.95-17.02,19.26-4.58,4.92-10.87,7.11-17.09,9.19-.2,.07-.28-.24-.09-.31h0Z"/><path class="b" d="M713.46,435c15.66-4.4,21.27-23.28,35.81-30.26,9.2-4.41,18.82-7.73,27.89-12.49,9.34-4.9,18.24-10.55,27.41-15.76,.48-.27,.89,.44,.43,.74-9.27,5.91-18.88,11.44-28.66,16.46-9.4,4.83-19.76,7.88-29,12.9-13.3,7.22-18.52,24.79-33.8,28.67-.17,.04-.24-.21-.07-.26h0Z"/><path class="b" d="M806.7,375.88c-7.56,2.47-12.43,8.4-18.11,13.58-5.18,4.73-11.16,8.04-17.57,10.85-14.06,6.15-30.15,10.88-37.03,26.03-.28,.62-1.19,.08-.92-.54,6.05-13.5,19.74-19.04,32.61-24.32,9.75-4,17.87-8.39,25.5-15.75,4.62-4.45,9.11-8.48,15.37-10.33,.31-.09,.44,.38,.13,.48h0Z"/><path class="b" d="M758.1,394.57c15.06-.26,26.87-9.01,39.28-16.5,.54-.32,1.03,.52,.49,.84-12.72,7.58-24.43,16.17-39.78,16.02-.23,0-.23-.35,0-.35h0Z"/><path class="b" d="M700.74,441.87c-.14-.39-.26-.79-.44-1.16,16.08-8.38,28.45-19.96,43.51-30.15,18.8-12.71,39.43-22.78,59.51-33.21,1.53-.8,2.76,1.34,1.34,2.3-11.24,7.6-21.75,17.7-34.14,23.42-16.24,7.5-28.9,16.98-42.92,28.17-1.71,1.37-3.96-.22-3.86-1.81-7.14,4.88-14.38,9.2-23,12.44Z"/><path class="b" d="M774.95,463.64s.02-.04,.03-.06c-1.15-.47-2.29-.82-3.44-1.11-1.12-.35-2.22-.58-3.33-.86,2.72-1.37,5.1-2.66,6.98-3.75,21.82-12.69,39.6-33.09,47.14-57.39,.35-1.14,2.16-.64,1.79,.49-8.5,26.05-24.83,48.57-47.81,63.2-.45-.17-.9-.36-1.35-.53Z"/><path class="b" d="M771.54,462.47c-2.26-.7-4.5-1.21-6.74-1.64,11.02-4.91,21.1-10.93,28.98-16.7,1.62-1.19,3.63,1.45,2.14,2.78-7.1,6.37-14.97,11.62-23.35,15.85-.34-.1-.69-.2-1.03-.29Z"/></g><g><path class="b" d="M653.16,560.08c2.79-5.52,5.58-11.03,8.36-16.55,2.76-1.2,5.53-2.39,8.29-3.59,3.12-1.05,6.4-1.65,9.59-2.43,4.86-1.18,9.85-2.11,14.49-4.04,13.72-5.7,21.79-17.38,36.49-22.36,10.06-3.41,20.53-5.68,29.26-12.05,6.02-4.4,32.62-31.87,37.25-10.09,.39,1.83,3.23,1.06,2.81-.78-2.46-10.83-8.05-12.06-17.86-8.44-6.58,2.43-11.54,6.45-16.86,10.84-11.18,9.21-21.89,13.27-35.39,17.72-7.1,2.34-13.84,5.1-19.73,9.81-7.31,5.83-12.22,11.31-21.64,14.36-4.7,1.52-9.64,2.22-14.39,3.53-11.98,3.31-25.76,9.98-22.4,24.53,.26,1.12,1.91,.64,1.71-.47h0Z"/><path class="b" d="M651.38,556.31c-4.32,41.18,75.83,19.24,94.44,10.2,19.87-9.65,34.03-27.84,46.07-45.83,8.05-12.04,14.79-28.3,3.42-40.52-1.04-1.11-3.12,.41-2.15,1.66,18.64,24.15-22.71,66.46-42.17,78.47-17.2,10.62-101.38,34.97-98.28-3.99,.07-.86-1.24-.84-1.33,0h0Z"/><path class="b" d="M656.39,546.75c-7.35,10.06,6.92,14.65,14.54,16.2,20.27,4.14,41.43,1.21,60.39-6.77,19.27-8.12,36.02-21.4,49.69-37.1,7.65-8.79,23.31-25.16,15.4-37.3-.71-1.09-2.48-.07-1.76,1.03,12.84,19.63-36.9,56.67-50.16,64.34-10.91,6.31-22.75,10.94-35.12,13.39-7.05,1.4-61.43,5.96-52.21-13.34,.25-.52-.43-.9-.76-.45h0Z"/><path class="b" d="M791.21,479.93c-10.5-14.11-21.38-23.6-39.78-23.48-19.56,.13-40.77,8.37-58.23,16.49-17.55,8.16-71.02,52.15-40,72.02,2.07,1.32,3.98-1.97,1.92-3.28-19.27-12.33,6.9-40.53,16.2-49.63,11.69-11.44,26.22-17.51,41.39-22.89,12.33-4.37,25.51-9.38,38.72-9.74,17.35-.48,28.57,8.48,39.08,21.05,.32,.38,1-.13,.69-.54h0Z"/><path class="b" d="M787.86,479.13c-23.59-4.03-50.61,12.72-71.57,22.18-11.31,5.11-19.91,11.02-29.14,19.03-10.22,8.87-22.54,13.06-31.8,23.27-1.3,1.43,.82,3.56,2.13,2.13,8.14-8.98,16.76-11.15,25.97-17.83,9.48-6.87,16.58-15.23,27.47-20.56,10.47-5.12,21.44-9.29,32.1-13.98,14.32-6.3,28.52-14.58,44.67-13.03,.69,.07,.85-1.1,.16-1.22h0Z"/><path class="b" d="M650.2,513.43c-9.18,13.48-14.81,32.78-.01,44.66,1.54,1.24,3.75-.96,2.19-2.19-13.95-11-9.1-28.85-1.11-41.85,.42-.69-.63-1.28-1.07-.63h0Z"/><path class="b" d="M718.15,502.57c4.94-3.15,9.36-8.4,11.65-13.81,.12-.29-.24-.67-.49-.38-1.67,1.99-2.86,4.38-4.41,6.47-2.04,2.75-4.19,5.33-6.93,7.41-.18,.13-.02,.43,.18,.31h0Z"/><path class="b" d="M732.33,484.28c.2-.38,.39-.76,.59-1.14,.12-.23-.25-.38-.32-.14-.12,.41-.23,.83-.35,1.25-.01,.05,.06,.08,.08,.03h0Z"/><path class="b" d="M697.35,530.13c5.84-3.46,10.97-4.97,17.82-4.68,2.51,.11,5.21-.05,7.68,.36,4.36,.72,6.75,3.29,9.91,5.98,.32,.28,.88-.08,.62-.48-4.23-6.59-6.58-7.45-14.38-7.63-8.91-.21-14.6,.8-22.06,5.76-.42,.28-.04,.95,.4,.69h0Z"/><path class="b" d="M774.14,495.19c-5.1-1.26-10.12-1.05-15.27-.2-1.87,.31-.92,3.54,1.09,2.59,4.42-2.1,9.29-2.41,14.1-1.78,.35,.05,.42-.53,.08-.61h0Z"/><path class="b" d="M672.54,505.88c3.65-3.89,7.56-7.52,11.72-10.87,.57-.46-.25-1.31-.81-.81-4,3.53-7.74,7.32-11.22,11.37-.18,.21,.12,.52,.31,.31h0Z"/><path class="b" d="M679.88,503.38c1.79-1.83,3.81-3.06,5.98-4.37,.55-.33,.07-1.1-.49-.84-2.28,1.04-4.3,2.9-5.93,4.77-.26,.3,.16,.73,.44,.44h0Z"/><path class="b" d="M686.23,505.88l3.28-2.85c.6-.52-.3-1.44-.88-.88-1.03,1.01-2.06,2.03-3.1,3.04-.45,.44,.22,1.09,.69,.69h0Z"/><path class="b" d="M763.3,514.03c1.61-.8,3.21-1.59,4.82-2.39,.91-.45,.07-1.92-.8-1.38-1.52,.95-3.04,1.9-4.55,2.85-.58,.36-.07,1.22,.54,.92h0Z"/><path class="b" d="M766.38,515.44c.77-.35,1.54-.69,2.3-1.04,.24-.11,.03-.47-.21-.36-.76,.36-1.52,.73-2.27,1.09-.21,.1-.03,.4,.18,.31h0Z"/><path class="b" d="M654.26,552.49c-1.33,14.99,16.18,17.5,27.35,18.46,17.45,1.51,35.58,.63,52.12-5.59,16.53-6.22,28.76-18.1,40.22-31.15,10.9-12.42,21.3-25.36,24.31-42.04,.04-.22-.31-.32-.34-.09-2.27,15.28-11.91,27.47-21.86,38.72-9.89,11.18-20.11,22.42-33.45,29.54-13.15,7.02-28.09,9.84-42.89,10.26-13.47,.38-45.94,1.83-45-18.1,.01-.31-.45-.3-.47,0h0Z"/><path class="b" d="M662.35,559.86c27.02,10.39,56.63,7.6,81.34-7.45,11.71-7.13,22.06-16.28,31.92-25.74,9.52-9.14,19.88-18.28,24.44-31.01,.12-.34-.41-.48-.54-.15-4.92,12.88-15.66,22.23-25.43,31.5-9.55,9.05-19.56,17.77-30.85,24.6-24.5,14.82-53.87,17.7-80.78,7.94-.2-.07-.28,.24-.09,.31h0Z"/><path class="b" d="M655.11,549.49c-4.99,8.45,.28,17.5,7.71,22.15,10.14,6.35,21.82,9.45,33.35,5.23,.74-.27,.42-1.47-.33-1.19-7.65,2.82-15.47,2.5-23.06-.32-10.03-3.73-23.56-12.92-17.27-25.63,.13-.27-.25-.5-.41-.24h0Z"/><path class="b" d="M644.44,533.37c-.17,6.39,4.28,13.84,11.01,14.99,.64,.11,1.2-.86,.49-1.16-6.06-2.57-10.55-6.86-10.85-13.84-.02-.42-.64-.42-.65,0h0Z"/><path class="b" d="M643.58,535.24c-.46,7.05,3.39,13.84,9.83,16.87,.7,.33,1.31-.7,.61-1.04-6.14-3.04-10.01-8.92-10.08-15.83,0-.23-.34-.23-.35,0h0Z"/><path class="b" d="M669.99,536.24c6.38-1.58,12.82-3.25,17.78-7.81,6.37-5.85,11.68-12.35,18.51-17.84,.5-.4-.21-1.11-.71-.71-5.61,4.48-10.74,9.04-15.41,14.49-5.53,6.45-12.25,9.18-20.26,11.56-.2,.06-.12,.36,.09,.31h0Z"/><path class="b" d="M682.67,531.7c6.38-1.1,11.21-4.53,15.79-8.97,7.58-7.35,13.44-14.56,23.78-18.28,19.34-6.96,38.01-13.6,56.27-23.29,.49-.26,.06-.97-.43-.74-10.39,4.86-20.51,10.2-31.12,14.59-8.96,3.7-18.43,5.94-27.37,9.6-14.5,5.93-21.33,23.72-36.99,26.83-.17,.03-.1,.28,.07,.26h0Z"/><path class="b" d="M780.17,479.5c-6.6,1.43-11.38,5.27-16.55,9.41-8.44,6.76-17.34,10.48-27.59,13.72-12.86,4.07-26.29,8.73-33.15,21.25-.33,.6,.58,1.13,.92,.54,8.28-14.94,25.37-18.06,40.16-23.35,5.85-2.09,11.4-4.67,16.41-8.39,6.48-4.81,11.83-10.71,19.94-12.7,.31-.08,.18-.55-.13-.48h0Z"/><path class="b" d="M730.33,495.08c15.29,1.38,27.69-6.27,40.95-12.8,.56-.28,.07-1.12-.49-.84-13,6.49-25.39,14.24-40.46,13.29-.23-.01-.22,.33,0,.35h0Z"/><path class="b" d="M665.35,538.38c15.08-3.5,25.97-9.87,38.96-18.05,17.3-10.9,36.83-18.23,55.21-27.07,2.01-.97,12.97-5.3,13.2-7.01,.65-4.88-6.83,1.25-8.57,2.22-8.46,4.73-16.58,9.92-25.83,12.94-16.42,5.35-29.39,14.37-43.86,23.84-2.38,1.56-.13,5.41,2.23,3.82,6.63-4.47,13.24-8.96,19.88-13.4,8.35-5.59,16.31-7.81,25.62-11.5,12.76-5.06,23.96-13.89,35.86-20.63,1.27-.72,.4-3.04-1.03-2.44-19.29,8.13-38.69,16.07-57.3,25.77-19.07,9.93-34.13,23.18-54.56,30.84-.42,.16-.26,.79,.19,.68h0Z"/><path class="b" d="M647.16,543.91c-.62,3.3,0,6.49,1.88,9.28,.44,.65,1.43,.91,2.01,.26,2.1-2.33,3.45-4.9,4.05-7.98,.33-1.67-1.86-2.72-2.81-1.18-1.68,2.71-2.83,5.63-3.42,8.77-.39,2.04,2.4,2.81,3.11,.86,.94-2.58,1.67-5.22,2.11-7.94,.25-1.51,.6-3.66-1.03-4.6-4.12-2.36-5.19,7.05-5.51,9.18,1.16,.16,2.33,.32,3.49,.47-.04-2.36-.09-4.73-.18-7.09-.07-1.75-2.38-2.44-3.31-.9-.88,1.45-1.97,2.88-2.42,4.52-.42,1.51,1.42,2.43,2.51,1.46,1.26-1.12,2.07-2.77,2.98-4.19-1.1-.3-2.21-.6-3.31-.9,.03,2.36,.1,4.73,.18,7.09,.06,1.9,3.22,2.54,3.49,.47,.18-1.37,.42-2.73,.74-4.08,.17-.7,.56-2.99,.99-3.18-.44,.06-.88,.11-1.32,.17-.39-.63-.54-.65-.45-.05-.05,.37-.1,.74-.15,1.1-.14,.9-.31,1.8-.51,2.7-.37,1.66-.85,3.28-1.41,4.89,1.04,.29,2.07,.57,3.11,.86,.5-2.9,1.46-5.55,2.96-8.08-.94-.39-1.87-.79-2.81-1.18-.47,2.66-1.5,5.07-3.1,7.25,.67-.09,1.34-.17,2.01-.26-1.78-2.15-2.48-4.74-2.24-7.5,.08-.94-1.48-1.15-1.65-.22h0Z"/><path class="b" d="M654.2,554.44c-.61,5.7,.17,9.04,2.69,14.15,.53,1.08,2.08,.92,2.65,0,2.25-3.61,2.16-3.12,1.18-7.35-.45-1.93-3.32-1.44-3.37,.46-.17,6.14,1.87,9.54,7.49,12.07,1.65,.74,4.02-.92,2.76-2.76-2.53-3.71-5.05-6.6-8.45-9.61-1.47-1.3-4.58-.07-3.68,2.14,11.13,27.27,58.81,14.59,78.7,6.17,28.64-12.13,49.65-35.02,61.49-63.39,.46-1.1-1.35-1.6-1.79-.49-9.15,22.84-27.77,41.53-49.63,52.46-17.54,8.76-73.09,28.77-84.74,3.55-1.15,.89-2.3,1.78-3.46,2.67,3.15,2.39,5.84,5.23,8.07,8.54,.76-.99,1.52-1.98,2.28-2.96-1.87-2.79-3.74-5.59-5.61-8.38-1.12,.15-2.25,.3-3.37,.46-.71-2.57-1.43-5.14-2.14-7.71-.07-.68-.99-.68-1.06,0h0Z"/><path class="b" d="M656.11,555.64c7.8,15.89,29.22,17.09,44.75,16.5,22.75-.87,44.56-8.29,62.74-22.04,1.76-1.33,.21-4.28-1.79-3.06-27.02,16.65-78.09,34.33-104.94,8-.41-.4-1,.1-.76,.59h0Z"/></g><g><path class="b" d="M735.16,360.05c5.37,1.96,17.57,7.11,16.03,14.68-1.83,8.97-17.42,9.27-24.3,9.44-10.51,.27-20.92-.87-31.45-.03-12.18,.96-24.16,3.5-36.3,4.76-15.14,1.57-35.17,2.21-48.4-7.05-25.46-17.82,31.62-27.07,40.45-28.05,21.4-2.37,43.13-1.2,64.51,.9,12.21,1.2,25.26,2.07,31.74,13.85,1.08,1.96-1.92,3.71-3,1.75-7.11-12.94-25.21-11.9-37.54-12.91-10.76-.88-21.56-1.5-32.36-1.45-12.48,.06-25.02,.91-37.27,3.4-4.31,.88-10.16,1.4-14.09,3.59-5.33,.17-8,3.06-8,8.67-5,6.78-2.7,10.42,6.89,10.93,21.79,7.43,45.12,2.31,67.29,.23,9.84-.92,19.37-.78,29.23-.45,4.51,.15,18.57,1.47,21.45-1.28,1.86-4.69,3.73-9.37,5.59-14.06-3.09-3-6.63-5.21-10.62-6.65-.15-.07-.04-.33,.11-.27h0Z"/><path class="b" d="M724.81,358.04c-19.43-11.12-41.5-13.7-63.56-13.95-9.52-.11-19.1,.07-28.59,.85-8.95,.74-21.39,.55-25.58,11.29-2.32,5.95-.82,13.33,.62,19.22,.22,.88-.95,1.36-1.45,.61-4.52-6.88-5.07-19.92,.52-26.55,7.08-8.38,23.61-7.53,33.36-8.01,26.21-1.3,64.07-2.58,85.53,15.44,.62,.52-.18,1.49-.85,1.1h0Z"/><g><path class="b" d="M616.72,400.12c-7.55-7.51-12.5-17.36-12.27-28.27,.07-3.18,4.96-3.2,4.96,0,0,13.09,5.58,21.75,13.89,27.51-2.26,.2-4.45,.46-6.58,.75Z"/><path class="b" d="M680.78,410.97c26.32,.25,65.07-2.72,66.63-35.72,.03-.71,1.02-.69,1.09,0,1.35,13.81-9.27,24.9-20.07,32.06-11.63,7.72-28.03,8.13-42.82,7.77-1.5-1.49-3.12-2.86-4.83-4.11Z"/></g><path class="b" d="M722.29,357.46c-9.42-1.37-18.43,2.13-27.7,2.31-8.22,.16-16.12-1.5-24.43-.89-9.72,.72-18.73,4.14-28.2,5.15-9.2,.98-14.82-1.57-24.17,2.53-.46,.2-.83-.39-.4-.68,6.09-4.21,9.7-5.51,16.79-7.25,9.69-2.37,20.49-5.73,30.68-6.56,10.14-.83,18.04,1.31,27.91,2.81,9.97,1.51,19.76-.35,29.57,2.4,.13,.04,.07,.21-.05,.19h0Z"/><path class="b" d="M613.44,367.98l-.56,.67c-.12,.15-.33-.06-.21-.21,.19-.22,.37-.45,.56-.67,.12-.15,.33,.06,.21,.21h0Z"/><path class="b" d="M747.5,377.82c-7.03,7.2-17,7.99-26.5,9.37-13.33,1.94-26.67,2.77-40.12,3.47-13.86,.73-27.88,2.07-41.76,1.39-9.57-.46-21.61-.7-28.77-7.95-.3-.3,.17-.77,.47-.47,8.45,8.67,24.52,7.86,35.79,7.6,11.42-.26,22.86-1.17,34.27-1.78,11.27-.6,22.53-1.17,33.74-2.62,10.74-1.39,24.1-1.7,32.51-9.39,.25-.23,.61,.13,.37,.37h0Z"/><path class="b" d="M746.71,376.87c-.88,25.25-39.4,23.26-56.4,23.83-28.08,.94-54.17,.25-77.85-16.81-.99-.71-.04-2.37,.97-1.65,20.45,14.54,42.02,17.98,66.61,17.44,20.11-.44,61.16,3.79,66.03-22.88,.07-.37,.66-.28,.65,.09h0Z"/><g><path class="b" d="M622.39,399.44c-5.1-2.76-8.97-6.98-12.03-14.22-.66-1.56,1.6-2.93,2.31-1.35,3.37,7.55,10.19,12.15,18.45,15.03-2.97,.09-5.9,.27-8.73,.54Z"/><path class="b" d="M667.18,403.84c4.51,.13,8.73,.2,12.36,.37,20.95,.97,62.95,1.6,65.46-28.19,.12-1.39,2.08-1.41,2.18,0,2,28.9-35.52,33.41-55.9,33.62-4.29,.04-8.57-.07-12.85-.29-3.46-2.23-7.25-4.06-11.26-5.51Z"/></g><path class="b" d="M741.47,380.06c-1.69,9.55-9.33,19.37-19.4,20.87-.54,.08-.76-.63-.23-.83,9.59-3.57,17-9.7,19.15-20.17,.06-.31,.53-.18,.48,.13h0Z"/><path class="b" d="M732.7,384.88c-2.33,8.47-9.67,15.2-17.25,19.22-.49,.26-1.09-.42-.62-.8,6.83-5.64,14.49-9.54,17.48-18.52,.08-.24,.45-.14,.38,.11h0Z"/><path class="b" d="M725.32,387.09c-3.5,6.52-9.13,17.1-17.46,18.07-.31,.04-.64-.31-.61-.61,.19-1.95,1.39-3.35,2.5-4.93,1.75-2.48,3.55-4.92,5.42-7.32,.28-.36,1.59-3.02,2.08-1.56,.14,.44-2.64,3.1-3.02,3.53-2.19,2.46-4.4,5.02-6.9,7.18-.29,.25-.66-.13-.42-.42,3.36-4.11,7.38-7.63,10.7-11.8,.24-.3,.78,.11,.54,.42-2.08,2.74-4.1,5.52-6.03,8.37-.39,.57-3.03,3.72-2.85,4.31,.61,1.93,2.71-.09,3.47-.62,5.35-3.73,8.89-9.35,12.1-14.91,.18-.31,.66-.03,.48,.28h0Z"/><path class="b" d="M711.76,389.41c-1.36,2.96-3.31,5.64-5.93,7.6-.51,.38-1.18-.48-.68-.88,2.47-2,4.57-4.2,6.12-7,.18-.32,.63-.04,.49,.28h0Z"/><path class="b" d="M705.78,391.88c-1.15,1.13-2.26,2.32-3.5,3.35-.29,.24-.67-.13-.42-.42,1.06-1.21,2.27-2.3,3.43-3.42,.32-.31,.81,.18,.49,.49h0Z"/><path class="b" d="M686.39,395.12c-1.79,1.12-3.59,2.21-5.34,3.39-.37,.25-.75-.39-.35-.6,1.87-.98,3.69-2.04,5.52-3.07,.19-.1,.35,.17,.17,.29h0Z"/><path class="b" d="M677.79,396.88c-.84,.36-1.68,.73-2.51,1.09-.46,.2-.73-.44-.27-.63,.84-.35,1.68-.71,2.53-1.06,.34-.14,.6,.45,.25,.6h0Z"/><path class="b" d="M665.17,398.01c-.17,0-.17-.26,0-.26s.17,.26,0,.26h0Z"/><path class="b" d="M667.61,382.51c-12.1,.95-24.07,.52-36.07-1.29-.41-.06-.49-.73-.12-.9,.43-.2,.87-.4,1.3-.59,.49-.22,.92,.47,.43,.74,1.39-.78,7.79,1.13,9.52,1.3,2.76,.28,5.53,.47,8.31,.59,5.55,.24,11.09,.1,16.63-.25,.26-.02,.25,.38,0,.4h0Z"/><path class="b" d="M646.37,379.3c-3.54-.49-7.15-.43-10.67-.97-.39-.06-.26-.62,.09-.65,3.49-.26,7.28,.52,10.72,1.11,.34,.06,.19,.56-.14,.51h0Z"/><path class="b" d="M636.26,374.75c-1.22-.17-2.44-.35-3.66-.52-.54-.08-.32-.92,.23-.83,1.22,.2,2.43,.39,3.65,.59,.51,.08,.29,.84-.21,.76h0Z"/><path class="b" d="M631.57,371.07c-.5,0-1,.01-1.49,.02-.51,0-.51-.8,0-.79l1.49,.02c.49,0,.49,.75,0,.76h0Z"/><path class="b" d="M707.84,350.6c-2.32,1.16-4.65,2.59-7.08,3.46-.16,.06-.25-.19-.11-.27,2.19-1.36,4.74-2.3,7.08-3.39,.13-.06,.25,.13,.12,.2h0Z"/><path class="b" d="M705.14,349.77c-1.77,.82-3.52,1.67-5.24,2.59-1.52,.81-2.99,1.86-4.63,2.41-.35,.12-.67-.4-.37-.63,2.76-2.21,6.83-3.4,10.12-4.64,.16-.06,.27,.2,.11,.27h0Z"/><path class="b" d="M700.52,347.94c-3.19,1.41-6.17,3.14-9.25,4.76-.38,.2-.69-.34-.33-.57,2.93-1.86,6.22-3.24,9.44-4.52,.19-.08,.33,.25,.14,.33h0Z"/><path class="b" d="M690.77,347.06c-3.35,1.77-6.83,3.53-10.44,4.69-.41,.13-.56-.48-.18-.64,3.49-1.44,7-2.75,10.4-4.42,.25-.12,.46,.24,.22,.37h0Z"/><path class="b" d="M681.52,347.01c-1.95,.67-3.56,1.74-5.38,2.65-.32,.16-.7-.26-.4-.52,1.56-1.34,3.69-2.09,5.64-2.64,.33-.09,.46,.4,.14,.51h0Z"/><path class="b" d="M673.58,347.84s-.04-.07,0-.07,.04,.07,0,.07h0Z"/><path class="b" d="M714.3,352.38c-3.43,1.21-7.01,3.12-10.56,3.83-.58,.12-1.04-.74-.43-1.03,3.31-1.58,7.34-2.21,10.85-3.31,.33-.1,.46,.4,.14,.51h0Z"/><path class="b" d="M715.89,354.65c-4.19-1.94-8.45-3.8-12.95-4.9-4.69-1.15-8.93-.89-13.65-.87-.64,0-.75-.92-.15-1.1,9.09-2.81,19.12,2.32,26.95,6.53,.23,.12,.03,.45-.2,.34h0Z"/><path class="b" d="M711.83,354.54c-9.4-2.22-19.27-4.64-28.96-4.84-.73-.02-.96-1.21-.18-1.33,4.12-.66,8.28,.58,12.32,1.41,5.71,1.18,11.37,2.57,16.99,4.12,.41,.11,.24,.74-.18,.64h0Z"/><path class="b" d="M698.84,353.39c-3.9-.82-7.81-1.3-11.77-1.66-.4-.04-.41-.65,0-.63,4.01,.25,7.99,.95,11.9,1.85,.29,.07,.17,.51-.12,.45h0Z"/><path class="b" d="M634.25,354.15c-9.85,2.6-19.32,5.47-25.88,13.76-.49,.62-1.35-.25-.86-.86,6.51-8.27,16.84-10.98,26.63-13.31,.27-.06,.38,.34,.11,.41h0Z"/><path class="b" d="M627.23,350.94c-8.38,3.84-16.83,8.6-21.25,17.05-.35,.68-1.43,.06-1.03-.6,5.16-8.36,13.09-13.18,21.89-17.11,.44-.2,.83,.45,.38,.66h0Z"/><path class="b" d="M619.65,351.19c-3,1.39-5.83,3.06-8.51,5-.43,.31-.85-.41-.42-.71,2.72-1.89,5.58-3.5,8.61-4.83,.36-.16,.69,.37,.32,.54h0Z"/><path class="b" d="M623.76,360.74c-1.64-1.5-3.39-2.84-5.33-3.93-1.76-.99-3.68-1.58-5.46-2.52-.46-.24-.14-.92,.34-.82,4,.9,7.93,4.07,10.86,6.84,.28,.26-.14,.68-.42,.42h0Z"/><path class="b" d="M616.66,363.4c-2.25-2.57-4.85-3.99-7.76-5.63-.54-.31-.18-1.24,.43-1.03,3.07,1.07,5.85,3.64,7.89,6.1,.32,.39-.22,.95-.56,.56h0Z"/><path class="b" d="M610.08,364.12c-.86-.34-1.72-.68-2.58-1.01-.63-.25-.35-1.28,.28-1.02,.86,.35,1.71,.7,2.57,1.05,.6,.24,.34,1.23-.27,.99h0Z"/><path class="b" d="M739.84,372.19c-3.46-4.42-7.75-7.82-12.54-10.73-5.17-3.13-10.18-3.43-15.95-4.34-.42-.07-.32-.77,.1-.75,6.06,.38,11.02,1.2,16.21,4.47,4.8,3.02,9.09,6.54,12.52,11.09,.15,.19-.19,.45-.34,.26h0Z"/><path class="b" d="M737.86,381.05c.67-8.83-9.88-14.86-16.69-17.71-.56-.23-.37-1.06,.25-.92,7.43,1.64,18.02,10.16,16.7,18.67-.02,.15-.27,.11-.26-.04h0Z"/><path class="b" d="M727.34,372.26c-1.98-1.27-3.96-2.55-5.94-3.82-.29-.18-.02-.64,.27-.46,1.96,1.3,3.93,2.6,5.89,3.91,.23,.15,.02,.52-.22,.37h0Z"/></g><path class="b" d="M2.26,605.29c-3.04,.51-3.04,4.99,.14,5.3,3.19,.3,3.99-4.01,1.34-5.38-1.01-.52-1.91,1.04-.89,1.52,1,.48,1.25,2.04-.1,2.26-1.76,.29-1.85-2.18-.18-2.58,.74-.18,.41-1.24-.31-1.12h0Z"/><path class="b" d="M205.59,738.43c3.71-.43,5.15,5.11,1.13,5.57-1.4,.16-2.44-.8-2.53-2.19-.09-1.41,1.06-2.01,1.31-3.24,.1-.47-.13-1.14-.69-1.22-2.74-.37-3.54,3.49-3,5.52,.68,2.55,3.2,3.96,5.73,3.31,2.3-.59,4.25-2.85,3.66-5.31-.6-2.53-3.25-4.2-5.77-3.55-.59,.15-.49,1.17,.15,1.1h0Z"/><path class="b" d="M189.64,733.15c-1.12,2.13,1.68,4.65,3.66,3.2,2.03-1.47,.54-4.79-1.74-4.86-.86-.03-.86,1.34,0,1.33,1.08-.01,1.85,1.33,1.33,2.28-.93,1.72-3.06-.4-2.74-1.73,.07-.3-.36-.51-.51-.22h0Z"/><path class="b" d="M449.63,499.14c-2.62-.56-5.52,1.08-5.78,3.9-.28,3.01,2.7,5.56,5.64,4.98,2.83-.56,4.48-3.84,3.55-6.51-.82-2.36-5.42-4.64-6.84-1.59-.26,.56,.03,1.42,.78,1.36,1.32-.11,2.88-.68,3.68,.83,.66,1.24-.08,3.12-1.4,3.57-1.4,.48-3.13-.74-3.5-2.09-.56-2.06,1.72-3.94,3.64-3.61,.54,.09,.78-.71,.23-.83h0Z"/><path class="b" d="M743.33,1.04c-1.97-.51-3.64,1.18-3.83,3.08-.25,2.52,2.2,3.99,4.47,3.74,2.52-.28,4.92-2.6,4.44-5.28-.39-2.17-3.4-3.62-4.94-1.65-.59,.75,.17,2.1,1.12,1.45,1.28-.88,2.02,.65,1.54,1.76-.46,1.05-1.55,1.69-2.68,1.72-.89,.02-1.96-.36-2.21-1.3-.27-1.04,.6-2.49,1.76-2.31,.77,.11,1.13-1,.33-1.2h0Z"/><path class="b" d="M731.11,35.06c-2.17,1.46-.55,4.91,1.99,3.8,2.73-1.2,.96-5.28-1.74-4.2-.7,.28-.43,1.23,.31,1.12,1.49-.22,2.13,1.98,.44,1.97-1.23,0-1.43-1.4-.6-2.18,.26-.25-.08-.71-.39-.51h0Z"/><path class="b" d="M554.39,173.82c-2.77-.04-5.23,2.63-4.64,5.44,.61,2.91,4.24,4.59,6.89,3.36,2.67-1.24,3.71-4.84,2.19-7.34-1.47-2.43-5.74-3.48-7.71-1.09-.54,.65-.06,1.94,.92,1.58,1.49-.55,3.21-1.02,4.5,.26,1.22,1.21,.87,3.44-.45,4.42-1.49,1.11-3.76,.21-4.41-1.44-.78-2,.86-4.02,2.83-4.31,.52-.07,.37-.88-.12-.89h0Z"/><path class="b" d="M573.49,186.28c-2.18,.51-4.25,2.85-2.67,5,1.34,1.83,4.31,2.06,5.72,.2,1.32-1.75,.88-4.75-1.35-5.52-2.26-.79-4.9,1.05-4.53,3.47,.17,1.13,1.77,.91,2.07,0,.23-.68,.82-1.49,1.65-1.12,.77,.35,.68,1.62,.02,2.06-.57,.38-1.61,.03-1.97-.51-.66-.99,.67-2.14,1.49-2.56,.58-.29,.17-1.16-.43-1.02h0Z"/><path class="b" d="M456.7,295.14c-2.5,.41-4.44,3.02-3.37,5.5,1.02,2.36,4.32,3.45,6.29,1.58,1.72-1.63,1.73-4.81-.47-6.04-1.94-1.08-5.66,.18-5.31,2.8,.13,.95,1.45,1.6,2,.54,.39-.74,.89-1.68,1.93-1.4,1.14,.3,1.01,1.89,.3,2.55-1.05,.96-2.66,.05-3.02-1.14-.45-1.48,.55-2.92,1.92-3.44,.6-.23,.37-1.06-.26-.95h0Z"/></svg>